<svg width="172" height="40" viewBox="0 0 172 40" fill="none" xmlns="http://www.w3.org/2000/svg">
<mask id="mask0_2631_8650" style="mask-type:luminance" maskUnits="userSpaceOnUse" x="0" y="0" width="172" height="41">
<path d="M171.666 0H0V40.001H171.666V0Z" fill="white"/>
</mask>
<g mask="url(#mask0_2631_8650)">
<path d="M16.5737 19.5804C16.5745 19.6823 16.539 19.7812 16.4737 19.8594C16.3838 19.9562 16.2683 20.0255 16.1407 20.0594C15.9389 20.1207 15.7316 20.1623 15.5217 20.1834C15.1975 20.2175 14.8717 20.2329 14.5457 20.2294C14.2118 20.233 13.8779 20.2176 13.5457 20.1834C13.3357 20.1634 13.1283 20.1218 12.9267 20.0594C12.8019 20.0242 12.6894 19.9549 12.6017 19.8594C12.5364 19.7812 12.5009 19.6823 12.5017 19.5804V11.4804H5.0017V19.5804C5.00252 19.6812 4.9698 19.7793 4.9087 19.8594C4.82274 19.957 4.70956 20.0267 4.5837 20.0594C4.38154 20.1208 4.1739 20.1623 3.9637 20.1834C3.63452 20.2177 3.30365 20.2331 2.9727 20.2294C2.6441 20.2328 2.31557 20.2174 1.9887 20.1834C1.77652 20.163 1.56685 20.1218 1.3627 20.0604C1.23506 20.0265 1.11961 19.9572 1.0297 19.8604C0.96436 19.7822 0.92892 19.6833 0.929703 19.5814V0.651436C0.928833 0.549509 0.964283 0.450603 1.0297 0.372436C1.11957 0.275211 1.23496 0.205214 1.3627 0.170436C1.56686 0.109124 1.77653 0.0679278 1.9887 0.047436C2.31555 0.0131131 2.64408 -0.0025789 2.9727 0.000435966C3.30333 -0.00288866 3.63388 0.0128039 3.9627 0.047436C4.1729 0.0686015 4.38054 0.11013 4.5827 0.171436C4.70849 0.204367 4.82162 0.27399 4.9077 0.371436C4.96887 0.451505 5.00159 0.549681 5.0007 0.650436V8.00944H12.5007V0.651436C12.4998 0.549509 12.5353 0.450603 12.6007 0.372436C12.6884 0.276957 12.8009 0.207717 12.9257 0.172436C13.1273 0.110065 13.3347 0.0685144 13.5447 0.048436C13.8769 0.0138901 14.2107 -0.00180175 14.5447 0.00143597C14.8707 -0.00172308 15.1965 0.0139698 15.5207 0.048436C15.7306 0.0696343 15.9379 0.111162 16.1397 0.172436C16.2672 0.206654 16.3826 0.275944 16.4727 0.372436C16.5381 0.450603 16.5736 0.549509 16.5727 0.651436L16.5737 19.5804Z" fill="#00AEE1"/>
<path d="M32.4887 19.6568C32.4917 19.7219 32.4791 19.7867 32.4522 19.846C32.4253 19.9052 32.3847 19.9573 32.3337 19.9978C32.1884 20.0969 32.0207 20.1581 31.8457 20.1758C31.5195 20.2186 31.1906 20.237 30.8617 20.2308C30.5225 20.2382 30.1832 20.2198 29.8467 20.1758C29.6833 20.16 29.5276 20.0983 29.3977 19.9978C29.353 19.9535 29.3183 19.9001 29.2957 19.8414C29.2731 19.7826 29.2632 19.7197 29.2667 19.6568V18.5568C28.7168 19.1529 28.0567 19.6368 27.3227 19.9818C26.5625 20.3294 25.7346 20.5039 24.8987 20.4928C24.2144 20.4997 23.533 20.4029 22.8777 20.2058C22.2926 20.0321 21.7485 19.7423 21.2777 19.3538C20.8261 18.9739 20.4685 18.4948 20.2327 17.9538C19.973 17.3365 19.8462 16.6714 19.8607 16.0018C19.8428 15.2735 20.0053 14.5521 20.3337 13.9018C20.6626 13.2932 21.1498 12.7846 21.7437 12.4298C22.4633 12.0067 23.2527 11.7155 24.0747 11.5698C25.1423 11.3713 26.2269 11.2779 27.3127 11.2908H28.6607V10.4548C28.6666 10.071 28.6222 9.68811 28.5287 9.31583C28.4532 9.01341 28.3045 8.73421 28.0957 8.50283C27.8742 8.2744 27.5961 8.10877 27.2897 8.02283C26.8838 7.91052 26.4637 7.8583 26.0427 7.86783C25.4545 7.86008 24.868 7.93309 24.2997 8.08483C23.8372 8.21249 23.3844 8.3729 22.9447 8.56483C22.552 8.74083 22.224 8.90083 21.9607 9.04483C21.7668 9.16753 21.5463 9.24194 21.3177 9.26183C21.2079 9.2622 21.1016 9.22357 21.0177 9.15283C20.9213 9.0686 20.8469 8.96221 20.8007 8.84283C20.7365 8.68217 20.6921 8.51426 20.6687 8.34283C20.6365 8.12735 20.6211 7.90969 20.6227 7.69183C20.6155 7.43656 20.6414 7.18145 20.6997 6.93283C20.7543 6.74416 20.8554 6.57223 20.9937 6.43283C21.219 6.22746 21.4751 6.05874 21.7527 5.93283C22.1627 5.73408 22.5873 5.56693 23.0227 5.43283C23.5423 5.26989 24.0726 5.14325 24.6097 5.05383C26.1241 4.81067 27.6716 4.86844 29.1637 5.22383C29.8637 5.39865 30.5139 5.73265 31.0637 6.19983C31.5718 6.65836 31.9463 7.24576 32.1477 7.89983C32.3901 8.6978 32.5052 9.52901 32.4887 10.3628V19.6568ZM28.6627 13.7398H27.1737C26.6334 13.7315 26.0936 13.778 25.5627 13.8788C25.1781 13.9482 24.8103 14.09 24.4787 14.2968C24.218 14.4626 24.0066 14.6954 23.8667 14.9708C23.7332 15.2539 23.6668 15.5639 23.6727 15.8768C23.6594 16.1304 23.7017 16.3838 23.7967 16.6193C23.8917 16.8547 24.0371 17.0665 24.2227 17.2398C24.65 17.5933 25.1951 17.7719 25.7487 17.7398C26.2812 17.744 26.8042 17.5992 27.2587 17.3218C27.7837 16.9858 28.2556 16.5732 28.6587 16.0978L28.6627 13.7398Z" fill="#00AEE1"/>
<path d="M50.2835 12.5003C50.2952 13.6206 50.1608 14.7377 49.8835 15.8233C49.6586 16.7267 49.2673 17.5803 48.7295 18.3403C48.24 19.0203 47.591 19.5697 46.8395 19.9403C46.0319 20.3236 45.1463 20.5143 44.2525 20.4973C43.88 20.5007 43.5082 20.4618 43.1445 20.3813C42.8059 20.3029 42.4781 20.1834 42.1685 20.0253C41.8383 19.8547 41.5246 19.6539 41.2315 19.4253C40.8957 19.1653 40.5751 18.8862 40.2715 18.5893V25.0953C40.2722 25.196 40.2395 25.2941 40.1785 25.3743C40.0941 25.4722 39.9839 25.5446 39.8605 25.5833C39.6663 25.6503 39.4649 25.6946 39.2605 25.7153C38.632 25.7771 37.999 25.7771 37.3705 25.7153C37.1661 25.6945 36.9647 25.6502 36.7705 25.5833C36.6472 25.5443 36.5372 25.472 36.4525 25.3743C36.3915 25.2941 36.3588 25.196 36.3595 25.0953V5.79527C36.3573 5.69924 36.3841 5.60479 36.4365 5.52427C36.5054 5.43391 36.5998 5.36633 36.7075 5.33027C36.8723 5.27042 37.044 5.23145 37.2185 5.21427C37.4842 5.18556 37.7513 5.17254 38.0185 5.17527C38.2797 5.17289 38.5408 5.18591 38.8005 5.21427C38.975 5.23145 39.1467 5.27042 39.3115 5.33027C39.4191 5.36655 39.5135 5.43409 39.5825 5.52427C39.6349 5.60479 39.6617 5.69924 39.6595 5.79527V7.42227C40.0334 7.03603 40.4291 6.67144 40.8445 6.33027C41.2123 6.02822 41.6092 5.76358 42.0295 5.54027C42.424 5.33156 42.8428 5.17267 43.2765 5.06727C43.7258 4.96169 44.186 4.90966 44.6475 4.91227C45.5471 4.88672 46.438 5.09336 47.2345 5.51227C47.9415 5.90506 48.5403 6.46677 48.9775 7.14727C49.4467 7.88761 49.7799 8.70579 49.9615 9.56327C50.1731 10.5298 50.2771 11.5168 50.2715 12.5063M46.2125 12.7853C46.2141 12.216 46.17 11.6475 46.0805 11.0853C46.0052 10.5826 45.8538 10.0944 45.6315 9.63727C45.4388 9.23644 45.152 8.88819 44.7955 8.62227C44.4167 8.35885 43.9626 8.22551 43.5015 8.24227C43.2418 8.24263 42.9836 8.28173 42.7355 8.35827C42.4601 8.44624 42.199 8.57391 41.9605 8.73727C41.668 8.93767 41.3957 9.16608 41.1475 9.41927C40.8294 9.74428 40.5343 10.0911 40.2645 10.4573V15.0113C40.7181 15.6068 41.2434 16.1442 41.8285 16.6113C42.2671 16.9675 42.8125 17.1664 43.3775 17.1763C43.8389 17.1895 44.2923 17.0538 44.6705 16.7893C45.035 16.5212 45.3341 16.1743 45.5455 15.7743C45.781 15.3291 45.9495 14.8516 46.0455 14.3573C46.1534 13.8375 46.208 13.3081 46.2085 12.7773" fill="#00AEE1"/>
<path d="M67.3069 12.5023C67.3187 13.6226 67.1842 14.7397 66.9069 15.8253C66.682 16.7287 66.2907 17.5823 65.7529 18.3423C65.2634 19.0223 64.6144 19.5717 63.8629 19.9423C63.0553 20.3256 62.1698 20.5163 61.2759 20.4993C60.9034 20.5027 60.5317 20.4638 60.1679 20.3833C59.8293 20.3049 59.5015 20.1854 59.1919 20.0273C58.8617 19.8567 58.548 19.6559 58.2549 19.4273C57.9191 19.1673 57.5986 18.8882 57.2949 18.5913V25.0973C57.2956 25.198 57.2629 25.2961 57.2019 25.3763C57.1175 25.4742 57.0073 25.5466 56.8839 25.5853C56.6897 25.6523 56.4884 25.6966 56.2839 25.7173C55.6555 25.7791 55.0224 25.7791 54.3939 25.7173C54.1895 25.6965 53.9882 25.6522 53.7939 25.5853C53.6707 25.5463 53.5606 25.474 53.4759 25.3763C53.4149 25.2961 53.3822 25.198 53.3829 25.0973V5.79727C53.3807 5.70124 53.4076 5.60679 53.4599 5.52627C53.5288 5.43591 53.6232 5.36833 53.7309 5.33227C53.8958 5.27242 54.0674 5.23345 54.2419 5.21627C54.5076 5.18756 54.7747 5.17454 55.0419 5.17727C55.3031 5.17489 55.5643 5.18791 55.8239 5.21627C55.9984 5.23345 56.1701 5.27242 56.3349 5.33227C56.4426 5.36855 56.5369 5.43609 56.6059 5.52627C56.6583 5.60679 56.6851 5.70124 56.6829 5.79727V7.42427C57.06 7.03705 57.459 6.67178 57.8779 6.33027C58.2457 6.02821 58.6427 5.76357 59.0629 5.54027C59.4574 5.33156 59.8763 5.17267 60.3099 5.06727C60.7592 4.96169 61.2194 4.90966 61.6809 4.91227C62.5805 4.88672 63.4715 5.09336 64.2679 5.51227C64.975 5.90506 65.5738 6.46677 66.0109 7.14727C66.4801 7.88762 66.8133 8.70579 66.9949 9.56327C67.2065 10.5298 67.3105 11.5168 67.3049 12.5063M63.2459 12.7853C63.2475 12.216 63.2034 11.6475 63.1139 11.0853C63.0386 10.5826 62.8872 10.0944 62.6649 9.63727C62.4722 9.23644 62.1854 8.88819 61.8289 8.62227C61.4501 8.35892 60.996 8.22558 60.5349 8.24227C60.2753 8.24263 60.0171 8.28172 59.7689 8.35827C59.4935 8.44622 59.2325 8.5739 58.9939 8.73727C58.7014 8.93765 58.4291 9.16607 58.1809 9.41927C57.8628 9.74427 57.5677 10.0911 57.2979 10.4573V15.0113C57.7516 15.6068 58.2769 16.1442 58.8619 16.6113C59.3006 16.9675 59.846 17.1664 60.4109 17.1763C60.8727 17.1898 61.3264 17.054 61.7049 16.7893C62.0694 16.5212 62.3685 16.1743 62.5799 15.7743C62.8154 15.3291 62.9839 14.8516 63.0799 14.3573C63.1878 13.8375 63.2424 13.3081 63.2429 12.7773" fill="#00AEE1"/>
<path d="M78.2563 20.1393L76.5833 25.0393C76.5116 25.1868 76.405 25.3147 76.2728 25.4117C76.1405 25.5088 75.9866 25.5721 75.8243 25.5963C74.9019 25.7731 73.9583 25.8122 73.0243 25.7123C72.8281 25.6931 72.6383 25.6324 72.4673 25.5343C72.412 25.5019 72.3651 25.457 72.3303 25.4032C72.2956 25.3493 72.274 25.288 72.2673 25.2243C72.2631 25.0694 72.295 24.9157 72.3603 24.7753L74.2013 20.1393C74.0602 20.0719 73.9358 19.9738 73.8373 19.8523C73.7333 19.7312 73.652 19.5923 73.5973 19.4423L68.8413 6.74228C68.7297 6.47878 68.6621 6.19871 68.6413 5.91328C68.6371 5.82933 68.6516 5.74549 68.6838 5.66784C68.716 5.59018 68.765 5.52065 68.8273 5.46428C69.0116 5.33306 69.2286 5.25552 69.4543 5.24028C69.8422 5.1937 70.2327 5.17299 70.6233 5.17828C71.0673 5.17828 71.4187 5.18594 71.6773 5.20128C71.8823 5.20674 72.0851 5.24594 72.2773 5.31728C72.4152 5.37349 72.5301 5.47462 72.6033 5.60428C72.6941 5.77979 72.7668 5.96407 72.8203 6.15428L76.0733 15.4023H76.1193L79.0933 5.96828C79.1212 5.77117 79.2045 5.58601 79.3333 5.43428C79.476 5.32759 79.6444 5.26064 79.8213 5.24028C80.2168 5.18887 80.6157 5.16815 81.0143 5.17828C81.3846 5.17397 81.7548 5.19468 82.1223 5.24028C82.356 5.2588 82.5806 5.33884 82.7733 5.47228C82.8414 5.5269 82.8957 5.59667 82.932 5.67602C82.9683 5.75536 82.9855 5.84209 82.9823 5.92928C82.9754 6.15893 82.9336 6.3862 82.8583 6.60328L78.2563 20.1393Z" fill="#00AEE1"/>
<path d="M96.5196 18.4338C96.5219 18.695 96.5089 18.9561 96.4806 19.2158C96.4618 19.3952 96.4229 19.572 96.3646 19.7428C96.3277 19.8582 96.2607 19.9618 96.1706 20.0428C96.0938 20.1044 95.998 20.1373 95.8996 20.1358H86.7136C86.3996 20.1459 86.0931 20.039 85.8536 19.8358C85.7275 19.707 85.631 19.5522 85.5709 19.3822C85.5108 19.2123 85.4885 19.0312 85.5056 18.8518V0.650781C85.505 0.548898 85.5404 0.450079 85.6056 0.371781C85.6957 0.275372 85.8111 0.206098 85.9386 0.171781C86.1423 0.109824 86.3517 0.0679578 86.5636 0.0467808C87.2204 -0.0155936 87.8817 -0.0155936 88.5386 0.0467808C88.7488 0.0679026 88.9564 0.109432 89.1586 0.170781C89.286 0.205147 89.4013 0.274414 89.4916 0.370781C89.5568 0.449079 89.5922 0.547898 89.5916 0.649781V16.7758H95.8916C95.9888 16.7737 96.084 16.8035 96.1626 16.8608C96.2519 16.934 96.319 17.0306 96.3566 17.1398C96.4162 17.3047 96.4552 17.4763 96.4726 17.6508C96.5009 17.9105 96.5139 18.1716 96.5116 18.4328" fill="#06B052"/>
<path d="M112.663 12.5605C112.675 13.6521 112.518 14.739 112.198 15.7825C111.912 16.7099 111.431 17.5654 110.788 18.2915C110.135 19.0102 109.323 19.5672 108.418 19.9185C107.354 20.3207 106.224 20.5152 105.087 20.4915C103.996 20.514 102.91 20.3405 101.881 19.9795C101.019 19.6704 100.244 19.1607 99.6188 18.4925C98.9982 17.8041 98.5427 16.9833 98.2868 16.0925C97.9828 15.0354 97.8366 13.9393 97.8528 12.8395C97.8406 11.7447 98.0003 10.6548 98.3258 9.60951C98.6138 8.68147 99.0973 7.82592 99.7438 7.10051C100.397 6.38704 101.205 5.83312 102.106 5.48151C103.166 5.07887 104.295 4.88432 105.429 4.90851C106.524 4.88439 107.615 5.05365 108.651 5.40851C109.511 5.71209 110.284 6.21958 110.905 6.88751C111.52 7.57814 111.973 8.39837 112.229 9.28751C112.533 10.3499 112.679 11.4514 112.663 12.5565M108.651 12.7115C108.655 12.0805 108.601 11.4504 108.488 10.8295C108.396 10.3021 108.21 9.7956 107.938 9.33451C107.688 8.91931 107.332 8.57748 106.908 8.34351C106.407 8.08961 105.851 7.9671 105.29 7.98751C104.766 7.97604 104.247 8.08483 103.772 8.30551C103.34 8.51594 102.971 8.83676 102.703 9.23551C102.406 9.6842 102.194 10.1829 102.076 10.7075C101.929 11.3503 101.859 12.0082 101.867 12.6675C101.862 13.2989 101.919 13.9292 102.037 14.5495C102.133 15.0758 102.319 15.5816 102.587 16.0445C102.833 16.4614 103.189 16.802 103.617 17.0285C104.117 17.2758 104.67 17.3953 105.228 17.3765C105.757 17.3894 106.281 17.2809 106.762 17.0595C107.192 16.8504 107.561 16.5326 107.831 16.1375C108.128 15.6928 108.338 15.1962 108.451 14.6735C108.592 14.0299 108.659 13.3723 108.651 12.7135" fill="#06B052"/>
<path d="M126.202 17.4105C126.202 17.6771 126.194 17.9018 126.179 18.0845C126.167 18.2379 126.146 18.3905 126.117 18.5415C126.097 18.6446 126.066 18.7452 126.024 18.8415C125.961 18.9522 125.88 19.0516 125.784 19.1355C125.589 19.3032 125.376 19.4485 125.149 19.5685C124.822 19.7509 124.48 19.9038 124.127 20.0255C123.72 20.1658 123.303 20.2744 122.88 20.3505C122.422 20.4337 121.958 20.4753 121.493 20.4745C120.527 20.4908 119.567 20.321 118.666 19.9745C117.868 19.6606 117.159 19.1583 116.598 18.5105C116.016 17.82 115.585 17.0149 115.335 16.1475C115.036 15.1107 114.892 14.0353 114.909 12.9565C114.883 11.7407 115.059 10.5292 115.428 9.37047C115.727 8.44372 116.221 7.59145 116.876 6.87047C117.485 6.21617 118.238 5.71228 119.076 5.39847C119.968 5.07041 120.913 4.90775 121.864 4.91847C122.271 4.91796 122.678 4.95411 123.08 5.02647C123.459 5.09394 123.832 5.19226 124.195 5.32047C124.516 5.43318 124.826 5.57302 125.124 5.73847C125.333 5.84729 125.528 5.98165 125.705 6.13847C125.795 6.22457 125.876 6.32087 125.945 6.42547C125.997 6.51873 126.034 6.62011 126.054 6.72547C126.083 6.87647 126.104 7.02906 126.116 7.18247C126.131 7.36313 126.139 7.58247 126.14 7.84047C126.164 8.26701 126.111 8.69441 125.985 9.10247C125.881 9.34513 125.748 9.46647 125.585 9.46647C125.38 9.45574 125.185 9.37967 125.028 9.24947C124.831 9.10547 124.598 8.94547 124.328 8.76947C124.025 8.57701 123.703 8.41617 123.368 8.28947C122.941 8.13578 122.489 8.06221 122.036 8.07247C121.58 8.05096 121.127 8.14725 120.72 8.35203C120.313 8.55682 119.966 8.86317 119.712 9.24147C119.108 10.2798 118.828 11.4741 118.906 12.6725C118.896 13.3337 118.963 13.9937 119.106 14.6395C119.215 15.1476 119.419 15.6308 119.706 16.0645C119.954 16.4337 120.296 16.7305 120.697 16.9245C121.131 17.1238 121.606 17.2219 122.084 17.2115C122.557 17.2231 123.028 17.1415 123.47 16.9715C123.824 16.8311 124.163 16.6552 124.482 16.4465C124.771 16.2505 125.014 16.0725 125.21 15.9125C125.345 15.7796 125.521 15.6952 125.71 15.6725C125.794 15.6698 125.876 15.6975 125.942 15.7505C126.018 15.8289 126.069 15.9286 126.089 16.0365C126.13 16.2124 126.159 16.3913 126.174 16.5715C126.194 16.7881 126.205 17.0668 126.205 17.4075" fill="#06B052"/>
<path d="M140.606 19.6568C140.609 19.7219 140.596 19.7867 140.569 19.846C140.542 19.9052 140.502 19.9573 140.451 19.9978C140.306 20.0969 140.138 20.1581 139.963 20.1758C139.637 20.2186 139.308 20.237 138.979 20.2308C138.64 20.2381 138.301 20.2197 137.965 20.1758C137.801 20.16 137.646 20.0983 137.516 19.9978C137.471 19.9535 137.436 19.9002 137.414 19.8414C137.391 19.7826 137.381 19.7197 137.385 19.6568V18.5568C136.835 19.1529 136.175 19.6368 135.441 19.9818C134.681 20.3294 133.853 20.5039 133.017 20.4928C132.333 20.4997 131.651 20.4029 130.996 20.2058C130.411 20.0322 129.867 19.7424 129.396 19.3538C128.944 18.9739 128.586 18.4948 128.35 17.9538C128.09 17.3364 127.964 16.6714 127.978 16.0018C127.96 15.2735 128.123 14.5521 128.451 13.9018C128.78 13.2931 129.267 12.7845 129.861 12.4298C130.581 12.0067 131.37 11.7155 132.192 11.5698C133.26 11.3713 134.344 11.2779 135.43 11.2908H136.778V10.4548C136.784 10.071 136.739 9.68811 136.646 9.31583C136.57 9.01332 136.421 8.7341 136.212 8.50283C135.991 8.27413 135.712 8.10846 135.406 8.02283C135 7.91038 134.58 7.85815 134.159 7.86783C133.571 7.86005 132.984 7.93307 132.416 8.08483C131.953 8.21248 131.501 8.37289 131.061 8.56483C130.668 8.74083 130.34 8.90083 130.077 9.04483C129.883 9.16756 129.662 9.24198 129.434 9.26183C129.324 9.26229 129.218 9.22365 129.134 9.15283C129.037 9.06873 128.963 8.96231 128.917 8.84283C128.853 8.68217 128.808 8.51426 128.785 8.34283C128.753 8.12735 128.737 7.90969 128.739 7.69183C128.732 7.43656 128.757 7.18141 128.816 6.93283C128.87 6.74409 128.971 6.57212 129.11 6.43283C129.335 6.22745 129.591 6.05873 129.869 5.93283C130.279 5.73409 130.703 5.56694 131.139 5.43283C131.658 5.2699 132.189 5.14326 132.726 5.05383C134.24 4.81067 135.788 4.86844 137.28 5.22383C137.98 5.39862 138.63 5.73262 139.18 6.19983C139.688 6.65836 140.063 7.24576 140.264 7.89983C140.506 8.69781 140.621 9.52901 140.605 10.3628L140.606 19.6568ZM136.78 13.7398H135.293C134.753 13.7315 134.213 13.778 133.682 13.8788C133.297 13.9482 132.929 14.09 132.597 14.2968C132.337 14.4628 132.126 14.6956 131.986 14.9708C131.852 15.2538 131.786 15.5639 131.792 15.8768C131.779 16.1304 131.821 16.3838 131.916 16.6193C132.011 16.8547 132.156 17.0665 132.342 17.2398C132.769 17.5933 133.314 17.772 133.868 17.7398C134.4 17.744 134.923 17.5992 135.378 17.3218C135.903 16.9858 136.375 16.5732 136.778 16.0978L136.78 13.7398Z" fill="#06B052"/>
<path d="M152.382 18.2492C152.391 18.5995 152.362 18.9499 152.297 19.2942C152.266 19.481 152.188 19.657 152.072 19.8062C151.954 19.9205 151.815 20.0099 151.662 20.0692C151.456 20.1541 151.244 20.2211 151.027 20.2692C150.766 20.329 150.502 20.3731 150.237 20.4012C149.951 20.432 149.664 20.4474 149.377 20.4472C148.694 20.4609 148.013 20.3615 147.363 20.1532C146.824 19.9756 146.339 19.6638 145.954 19.2472C145.563 18.8049 145.282 18.277 145.133 17.7062C144.944 16.9884 144.856 16.2481 144.869 15.5062V8.42816H143.211C143.015 8.42816 142.865 8.30682 142.762 8.06416C142.637 7.67161 142.584 7.25954 142.607 6.84816C142.604 6.5946 142.617 6.34114 142.646 6.08916C142.662 5.92195 142.701 5.75774 142.762 5.60116C142.8 5.49893 142.868 5.41005 142.956 5.34516C143.036 5.29273 143.131 5.26589 143.227 5.26816H144.869V2.18616C144.868 2.08661 144.897 1.98915 144.954 1.90716C145.034 1.80837 145.142 1.73564 145.264 1.69816C145.458 1.63238 145.659 1.59073 145.864 1.57416C146.117 1.54816 146.429 1.53516 146.801 1.53516C147.183 1.53516 147.5 1.54816 147.754 1.57416C147.958 1.58954 148.16 1.63122 148.354 1.69816C148.474 1.73859 148.58 1.81082 148.663 1.90716C148.724 1.98726 148.756 2.08541 148.756 2.18616V5.26816H151.761C151.857 5.26608 151.951 5.2929 152.032 5.34516C152.12 5.41013 152.187 5.49899 152.226 5.60116C152.286 5.75779 152.325 5.92197 152.342 6.08916C152.37 6.34113 152.383 6.5946 152.381 6.84816C152.403 7.25953 152.351 7.67156 152.226 8.06416C152.122 8.30682 151.973 8.42816 151.777 8.42816H148.756V14.9192C148.717 15.5077 148.84 16.0957 149.112 16.6192C149.254 16.8174 149.447 16.9742 149.67 17.0736C149.893 17.1731 150.139 17.2116 150.382 17.1852C150.569 17.1869 150.756 17.1685 150.939 17.1302C151.089 17.0986 151.236 17.0572 151.381 17.0062C151.51 16.9602 151.618 16.9182 151.706 16.8822C151.781 16.8484 151.863 16.8298 151.946 16.8272C152.009 16.8278 152.071 16.847 152.124 16.8822C152.192 16.9362 152.239 17.0133 152.256 17.0992C152.294 17.2444 152.322 17.3921 152.341 17.5412C152.369 17.7774 152.383 18.0152 152.38 18.2532" fill="#06B052"/>
<path d="M167.578 12.2997C167.609 12.6783 167.495 13.0547 167.26 13.3527C167.147 13.4686 167.01 13.559 166.859 13.6178C166.708 13.6766 166.547 13.7025 166.385 13.6937H157.973C157.967 14.2343 158.037 14.7729 158.182 15.2937C158.307 15.7476 158.534 16.1665 158.848 16.5177C159.171 16.8656 159.576 17.1287 160.025 17.2837C160.581 17.4718 161.165 17.5611 161.752 17.5477C162.355 17.5548 162.958 17.5056 163.552 17.4007C164.004 17.3185 164.452 17.21 164.892 17.0757C165.269 16.9571 165.582 16.8487 165.829 16.7507C166.019 16.6665 166.222 16.6167 166.429 16.6037C166.51 16.6008 166.59 16.6195 166.661 16.6577C166.732 16.7043 166.786 16.7723 166.816 16.8517C166.865 16.9781 166.893 17.1114 166.901 17.2467C166.916 17.4174 166.924 17.6317 166.924 17.8897C166.924 18.1171 166.919 18.3107 166.909 18.4707C166.901 18.6082 166.886 18.745 166.863 18.8807C166.847 18.9806 166.815 19.0773 166.77 19.1677C166.725 19.2491 166.671 19.3244 166.607 19.3917C166.441 19.5196 166.255 19.6189 166.057 19.6857C165.684 19.8334 165.301 19.955 164.911 20.0497C164.383 20.1805 163.849 20.2839 163.311 20.3597C162.675 20.4501 162.033 20.4942 161.39 20.4917C160.296 20.5116 159.205 20.3546 158.161 20.0267C157.287 19.7482 156.493 19.2648 155.845 18.6167C155.2 17.9434 154.724 17.1257 154.459 16.2317C154.135 15.136 153.981 13.9971 154.002 12.8547C153.987 11.7287 154.148 10.6074 154.482 9.53174C154.767 8.60767 155.242 7.75318 155.876 7.02274C156.487 6.33531 157.247 5.79747 158.099 5.45074C159.037 5.077 160.04 4.89279 161.05 4.90874C162.062 4.88304 163.07 5.05667 164.016 5.41974C164.791 5.72808 165.483 6.21332 166.038 6.83674C166.575 7.46024 166.971 8.1922 167.2 8.98274C167.455 9.85974 167.58 10.7694 167.572 11.6827L167.578 12.2997ZM163.798 11.1847C163.879 10.2752 163.646 9.36539 163.14 8.60574C162.88 8.28501 162.546 8.03217 162.167 7.86895C161.788 7.70573 161.375 7.63702 160.964 7.66874C160.517 7.65802 160.073 7.75364 159.67 7.94774C159.312 8.1258 159 8.38256 158.756 8.69874C158.503 9.03309 158.315 9.41105 158.199 9.81374C158.067 10.2595 157.991 10.7201 157.974 11.1847H163.798Z" fill="#06B052"/>
<path d="M7.98281 32.9227C7.99117 33.5825 7.90531 34.2401 7.72781 34.8757C7.57769 35.4159 7.31834 35.9196 6.96581 36.3557C6.62292 36.766 6.18628 37.0877 5.69281 37.2937C5.12552 37.523 4.51755 37.6346 3.90581 37.6217C3.3112 37.6354 2.71958 37.5335 2.16381 37.3217C1.69294 37.1355 1.27551 36.8356 0.948811 36.4487C0.61151 36.0318 0.367984 35.5471 0.234811 35.0277C0.069733 34.3901 -0.00897038 33.7332 0.000811361 33.0747C-0.00694639 32.4264 0.0789397 31.7804 0.255811 31.1567C0.405941 30.6199 0.66688 30.1205 1.02181 29.6907C1.36875 29.2836 1.80699 28.9642 2.30081 28.7587C2.8681 28.5294 3.47607 28.4178 4.08781 28.4307C4.67446 28.419 5.25783 28.5209 5.80581 28.7307C6.27617 28.9161 6.69424 29.2133 7.02381 29.5967C7.36447 30.0079 7.61152 30.4884 7.74781 31.0047C7.91518 31.631 7.99527 32.2774 7.98581 32.9257M6.72981 33.0087C6.73311 32.535 6.68821 32.0623 6.59581 31.5977C6.51913 31.1958 6.36713 30.8121 6.14781 30.4667C5.93964 30.1479 5.65088 29.8899 5.31081 29.7187C4.90516 29.5265 4.4594 29.4343 4.01081 29.4497C3.55984 29.4339 3.11231 29.5337 2.71081 29.7397C2.36958 29.9254 2.07778 30.1901 1.85981 30.5117C1.6367 30.8537 1.48092 31.2352 1.40081 31.6357C1.30495 32.0813 1.25768 32.5359 1.25981 32.9917C1.25618 33.4778 1.30006 33.9631 1.39081 34.4407C1.46215 34.8464 1.61048 35.2347 1.82781 35.5847C2.0328 35.9028 2.31944 36.1601 2.65781 36.3297C3.06606 36.5201 3.51359 36.6113 3.96381 36.5957C4.41759 36.6106 4.8678 36.5109 5.27281 36.3057C5.61824 36.1199 5.91179 35.8507 6.12681 35.5227C6.35079 35.1742 6.50749 34.7869 6.58881 34.3807C6.68266 33.9291 6.72891 33.4689 6.72681 33.0077" fill="#231F20"/>
<path d="M15.0728 37.318C15.0739 37.3511 15.0645 37.3837 15.0458 37.411C15.022 37.4404 14.991 37.4631 14.9558 37.477C14.9003 37.4986 14.8421 37.5124 14.7828 37.518C14.6912 37.5283 14.599 37.533 14.5068 37.532C14.4123 37.5332 14.3178 37.5285 14.2238 37.518C14.1645 37.5125 14.1063 37.4987 14.0508 37.477C14.0155 37.4634 13.9844 37.4406 13.9608 37.411C13.9417 37.3838 13.9319 37.3512 13.9328 37.318V33.682C13.9397 33.3947 13.9119 33.1076 13.8498 32.827C13.8023 32.6282 13.7208 32.4391 13.6088 32.268C13.5058 32.1142 13.364 31.9904 13.1978 31.909C13.0157 31.8231 12.8161 31.7806 12.6148 31.785C12.3051 31.7925 12.0055 31.8975 11.7588 32.085C11.4196 32.3391 11.1167 32.6386 10.8588 32.975V37.315C10.8598 37.3482 10.8499 37.3808 10.8308 37.408C10.8071 37.4375 10.7761 37.4603 10.7408 37.474C10.6854 37.4957 10.6271 37.5095 10.5678 37.515C10.4739 37.5255 10.3794 37.5302 10.2848 37.529C10.1926 37.53 10.1005 37.5254 10.0088 37.515C9.94863 37.5091 9.88946 37.4953 9.83283 37.474C9.79693 37.4615 9.76559 37.4385 9.74283 37.408C9.72616 37.3799 9.71784 37.3477 9.71883 37.315V31.109C9.71794 31.0767 9.72516 31.0448 9.73983 31.016C9.75998 30.9852 9.78889 30.9612 9.82283 30.947C9.87296 30.9238 9.92678 30.9096 9.98183 30.905C10.0666 30.8974 10.1517 30.894 10.2368 30.895C10.3375 30.895 10.4215 30.8983 10.4888 30.905C10.5428 30.9086 10.5955 30.9229 10.6438 30.947C10.6754 30.9632 10.7025 30.9869 10.7228 31.016C10.7397 31.044 10.7481 31.0763 10.7468 31.109V31.93C11.0414 31.5839 11.3953 31.293 11.7918 31.071C12.1149 30.8954 12.4761 30.8016 12.8438 30.798C13.2037 30.7868 13.5612 30.8587 13.8888 31.008C14.1594 31.1383 14.3949 31.3313 14.5758 31.571C14.7559 31.8172 14.8839 32.0976 14.9518 32.395C15.0339 32.7676 15.0721 33.1485 15.0658 33.53L15.0728 37.318Z" fill="#231F20"/>
<path d="M22.4492 33.9428C22.4563 34.0127 22.4479 34.0833 22.4246 34.1495C22.4012 34.2157 22.3635 34.2759 22.3142 34.3259C22.2285 34.4003 22.1186 34.4408 22.0052 34.4399H17.9162C17.9112 34.7531 17.9448 35.0658 18.0162 35.3709C18.0774 35.6308 18.196 35.8737 18.3632 36.0818C18.5314 36.2847 18.7486 36.4413 18.9942 36.5369C19.2976 36.6507 19.6202 36.7047 19.9442 36.6959C20.2093 36.6987 20.4741 36.6742 20.7342 36.6228C20.9376 36.5822 21.138 36.5281 21.3342 36.4609C21.5029 36.4009 21.6415 36.3469 21.7502 36.2989C21.8268 36.2591 21.9103 36.2343 21.9962 36.2259C22.0266 36.2255 22.0564 36.2338 22.0822 36.2498C22.1088 36.2676 22.1294 36.2931 22.1412 36.3229C22.1575 36.3659 22.1679 36.411 22.1722 36.4568C22.1799 36.5269 22.1836 36.5974 22.1832 36.6679C22.1832 36.7279 22.1832 36.7799 22.1762 36.8229C22.1692 36.8659 22.1662 36.9058 22.1582 36.9408C22.1522 36.9735 22.1407 37.005 22.1242 37.0339C22.1069 37.0627 22.0861 37.0892 22.0622 37.1129C21.993 37.1635 21.9178 37.2051 21.8382 37.2368C21.6818 37.3056 21.5203 37.3621 21.3552 37.4059C21.1289 37.4669 20.8996 37.5163 20.6682 37.5538C20.3934 37.5984 20.1155 37.6201 19.8372 37.6189C19.3807 37.6277 18.9263 37.5552 18.4952 37.4049C18.1267 37.2724 17.7947 37.0548 17.5262 36.7699C17.2524 36.4674 17.0504 36.1072 16.9352 35.7159C16.7935 35.2356 16.7261 34.7365 16.7352 34.2358C16.7283 33.7483 16.7981 33.2627 16.9422 32.7969C17.0661 32.3986 17.2703 32.0301 17.5422 31.7139C17.8004 31.4203 18.1213 31.1886 18.4812 31.0359C18.8721 30.8725 19.2925 30.7915 19.7162 30.7979C20.1438 30.7869 20.5687 30.8681 20.9622 31.0359C21.288 31.1795 21.5769 31.3953 21.8072 31.6668C22.0329 31.9397 22.1988 32.2569 22.2942 32.5978C22.3996 32.9693 22.4518 33.3538 22.4492 33.7399V33.9428ZM21.3042 33.6049C21.3462 33.1025 21.204 32.6021 20.9042 32.1969C20.7496 32.0219 20.5568 31.8849 20.3407 31.7965C20.1246 31.708 19.8911 31.6705 19.6582 31.6869C19.4015 31.6812 19.1471 31.7357 18.9152 31.8458C18.7088 31.9464 18.5264 32.0899 18.3802 32.2669C18.2331 32.4487 18.1203 32.6557 18.0472 32.8779C17.9677 33.1127 17.9233 33.358 17.9152 33.6059L21.3042 33.6049Z" fill="#231F20"/>
<path d="M32.304 34.9846C32.3111 35.3698 32.2322 35.7518 32.073 36.1026C31.9231 36.424 31.7039 36.7081 31.431 36.9346C31.1463 37.1684 30.8179 37.3431 30.465 37.4486C30.0761 37.5667 29.6715 37.625 29.265 37.6216C28.9862 37.6234 28.7079 37.598 28.434 37.5456C28.2019 37.5015 27.9735 37.4394 27.751 37.3596C27.5783 37.298 27.4111 37.2221 27.251 37.1326C27.1484 37.0786 27.0532 37.0114 26.968 36.9326C26.9125 36.8732 26.8724 36.8011 26.851 36.7226C26.8224 36.611 26.8097 36.4958 26.813 36.3806C26.812 36.2967 26.8167 36.2129 26.827 36.1296C26.8331 36.074 26.8469 36.0195 26.868 35.9676C26.8816 35.9326 26.9057 35.9025 26.937 35.8816C26.9675 35.8646 27.0021 35.8563 27.037 35.8576C27.1369 35.8715 27.2311 35.9119 27.31 35.9746C27.4555 36.0686 27.6064 36.1538 27.762 36.2296C27.9768 36.3336 28.1995 36.4202 28.428 36.4886C28.7203 36.5735 29.0237 36.6143 29.328 36.6096C29.5675 36.6135 29.806 36.5797 30.035 36.5096C30.2359 36.4477 30.4232 36.3482 30.587 36.2166C30.7401 36.0911 30.8616 35.9315 30.942 35.7506C31.0276 35.5525 31.0699 35.3384 31.066 35.1226C31.0725 34.8944 31.0124 34.6693 30.893 34.4746C30.7729 34.2894 30.6184 34.1289 30.438 34.0016C30.2351 33.8575 30.0192 33.7326 29.793 33.6286L29.051 33.2836C28.7985 33.1664 28.5521 33.0363 28.313 32.8936C28.0781 32.7557 27.8623 32.5876 27.671 32.3936C27.4791 32.1962 27.3237 31.9663 27.212 31.7146C27.0877 31.419 27.0277 31.1003 27.036 30.7796C27.0284 30.4357 27.0967 30.0942 27.236 29.7796C27.3661 29.4946 27.5597 29.2432 27.802 29.0446C28.0577 28.8395 28.3508 28.686 28.665 28.5926C29.0151 28.4868 29.3793 28.4345 29.745 28.4376C29.9461 28.4378 30.1469 28.4552 30.345 28.4896C30.5367 28.5222 30.7259 28.5683 30.911 28.6276C31.0736 28.6792 31.2318 28.7437 31.384 28.8206C31.4823 28.866 31.5741 28.9242 31.657 28.9936C31.6898 29.0232 31.7187 29.0568 31.743 29.0936C31.7589 29.1252 31.7703 29.1589 31.777 29.1936C31.7875 29.2404 31.7946 29.2878 31.798 29.3356C31.798 29.3906 31.805 29.4626 31.805 29.5496C31.8056 29.6234 31.8023 29.6972 31.795 29.7706C31.79 29.8255 31.7796 29.8798 31.764 29.9326C31.7547 29.9711 31.7341 30.0059 31.705 30.0326C31.681 30.053 31.6505 30.064 31.619 30.0636C31.5329 30.0495 31.4514 30.0152 31.381 29.9636C31.273 29.897 31.1397 29.8243 30.981 29.7456C30.8027 29.6562 30.617 29.5822 30.426 29.5246C30.1921 29.4551 29.949 29.4214 29.705 29.4246C29.4849 29.4203 29.2656 29.4542 29.057 29.5246C28.889 29.5819 28.7343 29.6723 28.602 29.7906C28.4834 29.8993 28.3914 30.0337 28.333 30.1836C28.2728 30.3375 28.2423 30.5014 28.243 30.6666C28.237 30.8929 28.2971 31.116 28.416 31.3086C28.5377 31.4948 28.6934 31.6563 28.875 31.7846C29.0803 31.9307 29.2985 32.0576 29.527 32.1636C29.771 32.279 30.0194 32.395 30.272 32.5116C30.5247 32.6283 30.773 32.757 31.017 32.8976C31.2555 33.0348 31.4747 33.2029 31.669 33.3976C31.863 33.5929 32.0196 33.822 32.131 34.0736C32.2544 34.3647 32.3144 34.6786 32.307 34.9946" fill="#231F20"/>
<path d="M37.0989 36.8626C37.1014 36.9689 37.0923 37.0752 37.0719 37.1796C37.0605 37.2437 37.0318 37.3036 36.9889 37.3526C36.9401 37.3957 36.8838 37.4296 36.8229 37.4526C36.7417 37.4873 36.6573 37.5138 36.5709 37.5316C36.4762 37.5529 36.3762 37.5702 36.2709 37.5836C36.1654 37.5974 36.0592 37.6044 35.9529 37.6046C35.6715 37.6112 35.3913 37.5682 35.1249 37.4776C34.906 37.4 34.711 37.267 34.5589 37.0916C34.4027 36.9006 34.2929 36.6761 34.2379 36.4356C34.1666 36.1291 34.133 35.8151 34.1379 35.5006V31.8736H33.2689C33.2336 31.8729 33.1993 31.8621 33.1699 31.8427C33.1405 31.8232 33.1173 31.7958 33.1029 31.7636C33.0537 31.6506 33.0324 31.5275 33.0409 31.4046C33.0399 31.3306 33.0455 31.2566 33.0579 31.1836C33.0667 31.1326 33.0819 31.0829 33.1029 31.0356C33.1174 31.0006 33.1431 30.9715 33.1759 30.9526C33.2065 30.936 33.241 30.9277 33.2759 30.9286H34.1379V29.4526C34.1376 29.421 34.1459 29.3899 34.1619 29.3626C34.184 29.3299 34.2153 29.3045 34.2519 29.2896C34.3079 29.2657 34.3673 29.2506 34.4279 29.2446C34.5195 29.2344 34.6117 29.2298 34.7039 29.2306C34.7984 29.2297 34.8929 29.2344 34.9869 29.2446C35.0466 29.2502 35.105 29.2654 35.1599 29.2896C35.1956 29.3059 35.2265 29.331 35.2499 29.3626C35.2675 29.3893 35.2769 29.4206 35.2769 29.4526V30.9296H36.8709C36.9058 30.9281 36.9404 30.9364 36.9709 30.9536C37.0021 30.974 37.0271 31.0027 37.0429 31.0366C37.066 31.0831 37.0812 31.1331 37.0879 31.1846C37.0979 31.2578 37.1026 31.3317 37.1019 31.4056C37.1103 31.5285 37.089 31.6516 37.0399 31.7646C37.0255 31.7966 37.0024 31.8239 36.9732 31.8434C36.944 31.8629 36.9099 31.8737 36.8749 31.8746H35.2779V35.3376C35.258 35.6715 35.3234 36.0049 35.4679 36.3066C35.5396 36.419 35.6412 36.5092 35.7613 36.5672C35.8814 36.6251 36.0152 36.6484 36.1479 36.6346C36.2431 36.6357 36.3381 36.6253 36.4309 36.6036C36.5129 36.5826 36.5869 36.5616 36.6519 36.5376C36.7169 36.5136 36.7719 36.4926 36.8179 36.4726C36.8565 36.4535 36.8988 36.4429 36.9419 36.4416C36.9649 36.4415 36.9877 36.4474 37.0079 36.4586C37.0296 36.4732 37.0458 36.4947 37.0539 36.5196C37.0676 36.5624 37.078 36.6062 37.0849 36.6506C37.095 36.7191 37.0997 36.7883 37.0989 36.8576" fill="#231F20"/>
<path d="M44.2369 34.1437C44.2418 34.6178 44.1744 35.0899 44.0369 35.5437C43.9142 35.9475 43.71 36.3219 43.4369 36.6437C43.1653 36.9572 42.8252 37.2039 42.4429 37.3647C42.0046 37.5451 41.5338 37.6333 41.0599 37.6237C40.6044 37.6333 40.1513 37.556 39.7249 37.3957C39.3604 37.2542 39.0353 37.0271 38.7769 36.7337C38.5142 36.4266 38.3212 36.0664 38.2109 35.6777C38.0804 35.2203 38.0174 34.7463 38.0239 34.2707C38.0199 33.7966 38.0873 33.3247 38.2239 32.8707C38.3433 32.4669 38.5452 32.0924 38.8169 31.7707C39.0871 31.4582 39.4259 31.2125 39.8069 31.0527C40.2471 30.8742 40.719 30.7874 41.1939 30.7977C41.6493 30.788 42.1025 30.8654 42.5289 31.0257C42.8937 31.167 43.2192 31.3941 43.4779 31.6877C43.7402 31.9954 43.9342 32.3553 44.0469 32.7437C44.1793 33.1984 44.2433 33.6702 44.2369 34.1437ZM43.0569 34.2197C43.0584 33.9 43.0269 33.5809 42.9629 33.2677C42.9082 32.989 42.8031 32.7227 42.6529 32.4817C42.5082 32.2551 42.3064 32.0706 42.0679 31.9467C41.7827 31.8054 41.467 31.7367 41.1489 31.7467C40.8477 31.7385 40.5486 31.7998 40.2749 31.9257C40.0361 32.0426 39.83 32.2167 39.6749 32.4327C39.51 32.6669 39.3909 32.9302 39.3239 33.2087C39.2448 33.5293 39.2061 33.8585 39.2089 34.1887C39.2068 34.5107 39.2383 34.8322 39.3029 35.1477C39.3571 35.426 39.4633 35.6917 39.6159 35.9307C39.7635 36.1548 39.9659 36.3376 40.2039 36.4617C40.4892 36.6027 40.8048 36.6714 41.1229 36.6617C41.4227 36.6691 41.7203 36.6079 41.9929 36.4827C42.2331 36.3686 42.4413 36.1968 42.5989 35.9827C42.7643 35.7502 42.8825 35.4876 42.9469 35.2097C43.0242 34.8865 43.0618 34.555 43.0589 34.2227" fill="#231F20"/>
<path d="M51.6282 34.1178C51.6342 34.6111 51.5751 35.103 51.4522 35.5808C51.3518 35.9773 51.1759 36.3508 50.9342 36.6808C50.7128 36.9786 50.423 37.2187 50.0892 37.3808C49.729 37.5495 49.3349 37.6333 48.9372 37.6258C48.7657 37.627 48.5946 37.6086 48.4272 37.5708C48.2676 37.5327 48.1133 37.4745 47.9682 37.3978C47.8102 37.313 47.6611 37.2125 47.5232 37.0978C47.3759 36.9785 47.2196 36.8382 47.0542 36.6768V39.7768C47.0556 39.8123 47.0458 39.8472 47.0262 39.8768C47.0035 39.908 46.9723 39.932 46.9362 39.9458C46.8808 39.9675 46.8225 39.9813 46.7632 39.9868C46.6693 39.9973 46.5748 40.0019 46.4802 40.0008C46.388 40.0018 46.2958 39.9971 46.2042 39.9868C46.144 39.9808 46.0849 39.967 46.0282 39.9458C45.9916 39.9331 45.9601 39.9089 45.9382 39.8768C45.9212 39.8463 45.9129 39.8117 45.9142 39.7768V31.1088C45.9129 31.0743 45.9201 31.0399 45.9352 31.0088C45.955 30.9784 45.9842 30.9553 46.0182 30.9428C46.069 30.9223 46.1226 30.9095 46.1772 30.9048C46.3346 30.891 46.4929 30.891 46.6502 30.9048C46.7035 30.9098 46.7557 30.9226 46.8052 30.9428C46.8396 30.9561 46.8695 30.979 46.8912 31.0088C46.9084 31.0393 46.9167 31.0739 46.9152 31.1088V31.9438C47.0873 31.767 47.2692 31.6 47.4602 31.4438C47.6243 31.3086 47.8011 31.1897 47.9882 31.0888C48.1608 30.9962 48.3437 30.9244 48.5332 30.8748C48.726 30.8254 48.9242 30.8009 49.1232 30.8018C49.5232 30.7899 49.9197 30.8801 50.2752 31.0638C50.5891 31.2355 50.8557 31.4821 51.0512 31.7818C51.2598 32.1056 51.4081 32.4643 51.4892 32.8408C51.5833 33.2609 51.6296 33.6903 51.6272 34.1208M50.4472 34.2518C50.4478 33.9433 50.4234 33.6353 50.3742 33.3308C50.3326 33.0561 50.2483 32.7895 50.1242 32.5408C50.0141 32.32 49.8504 32.1303 49.6482 31.9888C49.4279 31.8446 49.1683 31.7723 48.9052 31.7818C48.7571 31.7818 48.6099 31.8037 48.4682 31.8468C48.3139 31.8957 48.1669 31.9654 48.0312 32.0538C47.8647 32.1631 47.709 32.288 47.5662 32.4268C47.3827 32.6049 47.2114 32.7949 47.0532 32.9958V35.4658C47.3147 35.795 47.6171 36.0894 47.9532 36.3418C48.2096 36.5341 48.5208 36.6392 48.8412 36.6418C49.1028 36.6488 49.3603 36.5766 49.5802 36.4348C49.789 36.2939 49.9605 36.1045 50.0802 35.8828C50.2118 35.6406 50.3066 35.38 50.3612 35.1098C50.4211 34.8264 50.4512 34.5375 50.4512 34.2478" fill="#231F20"/>
<path d="M62.6189 37.3105C62.6203 37.3451 62.6131 37.3794 62.5979 37.4105C62.5774 37.4438 62.5454 37.4683 62.5079 37.4795C62.4456 37.5017 62.3808 37.5158 62.3149 37.5215C62.2049 37.5319 62.0944 37.5366 61.9839 37.5355C61.8857 37.5364 61.7876 37.5318 61.6899 37.5215C61.6274 37.5153 61.5661 37.5002 61.5079 37.4765C61.4649 37.4584 61.4278 37.4286 61.4009 37.3905C61.3729 37.3478 61.351 37.3013 61.3359 37.2525L60.5149 35.1525C60.4176 34.9132 60.3176 34.6935 60.2149 34.4935C60.1186 34.3033 59.9942 34.1287 59.8459 33.9755C59.7036 33.8304 59.5336 33.7155 59.3459 33.6375C59.1229 33.5513 58.885 33.5101 58.6459 33.5165H57.8519V37.3165C57.8534 37.3524 57.8425 37.3877 57.8209 37.4165C57.7951 37.4482 57.7602 37.4712 57.7209 37.4825C57.6628 37.5022 57.6028 37.5159 57.5419 37.5235C57.3516 37.547 57.1592 37.547 56.9689 37.5235C56.9068 37.5156 56.8455 37.5019 56.7859 37.4825C56.7461 37.4724 56.7109 37.4492 56.6859 37.4165C56.6667 37.3868 56.6572 37.3518 56.6589 37.3165V29.0455C56.6513 28.9761 56.6601 28.9058 56.6848 28.8405C56.7095 28.7751 56.7493 28.7165 56.8009 28.6695C56.8861 28.6013 56.9918 28.5636 57.1009 28.5625H59.0009C59.2263 28.5625 59.4136 28.5682 59.5629 28.5795C59.7119 28.5915 59.8469 28.6035 59.9629 28.6175C60.2796 28.6688 60.5876 28.764 60.8779 28.9005C61.1292 29.0197 61.3553 29.1861 61.5439 29.3905C61.7214 29.5877 61.8575 29.8186 61.9439 30.0695C62.0364 30.3415 62.0821 30.6272 62.0789 30.9145C62.0823 31.186 62.0414 31.4562 61.9579 31.7145C61.8817 31.9432 61.7637 32.1558 61.6099 32.3415C61.4541 32.5267 61.2702 32.6863 61.0649 32.8145C60.8414 32.9537 60.6029 33.067 60.3539 33.1525C60.4979 33.2153 60.6325 33.2977 60.7539 33.3975C60.8792 33.5022 60.9917 33.6213 61.0889 33.7525C61.1998 33.9026 61.2979 34.0619 61.3819 34.2285C61.4739 34.4078 61.5659 34.6102 61.6579 34.8355L62.4579 36.8015C62.5219 36.9665 62.5639 37.0835 62.5819 37.1495C62.5977 37.1998 62.6071 37.2519 62.6099 37.3045M60.8319 31.0395C60.8419 30.7272 60.7602 30.4189 60.5969 30.1525C60.4075 29.8885 60.1279 29.7031 59.8109 29.6315C59.6832 29.5972 59.5527 29.5741 59.4209 29.5625C59.2763 29.5485 59.0866 29.5415 58.8519 29.5415H57.8519V32.5505H59.0109C59.2856 32.5561 59.5594 32.5176 59.8219 32.4365C60.0313 32.371 60.225 32.2631 60.3909 32.1195C60.5393 31.989 60.6542 31.8247 60.7259 31.6405C60.7985 31.4489 60.8348 31.2454 60.8329 31.0405" fill="#231F20"/>
<path d="M69.2558 33.9421C69.2629 34.0119 69.2545 34.0825 69.2312 34.1487C69.2079 34.2149 69.1702 34.2752 69.1208 34.3251C69.0352 34.3995 68.9253 34.4401 68.8118 34.4391H64.7228C64.7178 34.7524 64.7514 35.065 64.8228 35.3701C64.884 35.63 65.0026 35.8729 65.1698 36.0811C65.3381 36.2839 65.5552 36.4405 65.8008 36.5361C66.1042 36.65 66.4268 36.704 66.7508 36.6951C67.0159 36.6979 67.2807 36.6734 67.5408 36.6221C67.7442 36.5814 67.9446 36.5273 68.1408 36.4601C68.3095 36.4001 68.4481 36.3461 68.5568 36.2981C68.6334 36.2583 68.7169 36.2335 68.8028 36.2251C68.8332 36.2247 68.863 36.233 68.8888 36.2491C68.9155 36.2668 68.936 36.2923 68.9478 36.3221C68.9641 36.3652 68.9746 36.4102 68.9788 36.4561C68.9866 36.5262 68.9902 36.5966 68.9898 36.6671C68.9898 36.7271 68.9898 36.7791 68.9828 36.8221C68.9788 36.8617 68.9728 36.9011 68.9648 36.9401C68.9588 36.9728 68.9473 37.0042 68.9308 37.0331C68.9135 37.0619 68.8927 37.0885 68.8688 37.1121C68.7997 37.1627 68.7244 37.2044 68.6448 37.2361C68.4884 37.3048 68.3269 37.3613 68.1618 37.4051C67.9355 37.4662 67.7062 37.5156 67.4748 37.5531C67.2001 37.5976 66.9221 37.6193 66.6438 37.6181C66.1873 37.6269 65.7329 37.5544 65.3018 37.4041C64.9333 37.2716 64.6013 37.0541 64.3328 36.7691C64.0581 36.4663 63.8554 36.1053 63.7398 35.7131C63.5986 35.2341 63.5311 34.7364 63.5398 34.2371C63.5329 33.7495 63.6028 33.2639 63.7468 32.7981C63.8707 32.3999 64.0749 32.0313 64.3468 31.7151C64.6053 31.4193 64.9274 31.1859 65.2888 31.0321C65.6798 30.8688 66.1002 30.7878 66.5238 30.7941C66.9509 30.7823 67.3754 30.8625 67.7688 31.0291C68.0946 31.1728 68.3835 31.3885 68.6138 31.6601C68.8395 31.9329 69.0054 32.2501 69.1008 32.5911C69.2062 32.9625 69.2584 33.347 69.2558 33.7331V33.9421ZM68.1108 33.6041C68.1528 33.1018 68.0107 32.6013 67.7108 32.1961C67.5562 32.0212 67.3634 31.8842 67.1473 31.7957C66.9312 31.7073 66.6977 31.6698 66.4648 31.6861C66.2081 31.6805 65.9537 31.7349 65.7218 31.8451C65.5155 31.9456 65.333 32.0892 65.1868 32.2661C65.0397 32.4479 64.9269 32.6549 64.8538 32.8771C64.7743 33.112 64.7299 33.3573 64.7218 33.6051L68.1108 33.6041Z" fill="#231F20"/>
<path d="M72.1235 37.3181C72.1246 37.3512 72.1152 37.3838 72.0965 37.4111C72.0727 37.4405 72.0417 37.4632 72.0065 37.4771C71.951 37.4987 71.8928 37.5125 71.8335 37.5181C71.7396 37.5285 71.6451 37.5332 71.5505 37.5321C71.4583 37.5331 71.3662 37.5285 71.2745 37.5181C71.2143 37.5123 71.1551 37.4985 71.0985 37.4771C71.0625 37.4647 71.0312 37.4417 71.0085 37.4111C70.9916 37.3831 70.9833 37.3508 70.9845 37.3181V28.1001C70.9831 28.0652 70.9914 28.0306 71.0085 28.0001C71.0301 27.9679 71.0618 27.9436 71.0985 27.9311C71.1551 27.9094 71.2143 27.8953 71.2745 27.8891C71.3662 27.879 71.4583 27.8743 71.5505 27.8751C71.6451 27.8742 71.7396 27.8789 71.8335 27.8891C71.8929 27.895 71.9511 27.9091 72.0065 27.9311C72.0426 27.9449 72.0738 27.9689 72.0965 28.0001C72.1155 28.0299 72.1249 28.0648 72.1235 28.1001V37.3181Z" fill="#231F20"/>
<path d="M80.0025 34.1437C80.0074 34.6178 79.94 35.0899 79.8025 35.5437C79.6799 35.9475 79.4756 36.3219 79.2025 36.6437C78.931 36.9572 78.5908 37.2039 78.2085 37.3647C77.7702 37.5451 77.2994 37.6333 76.8255 37.6237C76.3701 37.6333 75.917 37.556 75.4905 37.3957C75.126 37.2542 74.8009 37.0271 74.5425 36.7337C74.2799 36.4266 74.0868 36.0664 73.9765 35.6777C73.846 35.2203 73.783 34.7463 73.7895 34.2707C73.7855 33.7966 73.8529 33.3247 73.9895 32.8707C74.1089 32.4669 74.3109 32.0924 74.5825 31.7707C74.8527 31.4582 75.1916 31.2125 75.5725 31.0527C76.0127 30.8742 76.4846 30.7875 76.9595 30.7977C77.415 30.788 77.8681 30.8654 78.2945 31.0257C78.6594 31.167 78.9849 31.3941 79.2435 31.6877C79.5059 31.9954 79.6998 32.3553 79.8125 32.7437C79.9449 33.1983 80.0089 33.6702 80.0025 34.1437ZM78.8225 34.2197C78.8241 33.9 78.7926 33.5809 78.7285 33.2677C78.6738 32.989 78.5688 32.7227 78.4185 32.4817C78.2738 32.2551 78.0721 32.0706 77.8335 31.9467C77.5483 31.8054 77.2326 31.7367 76.9145 31.7467C76.6133 31.7385 76.3143 31.7998 76.0405 31.9257C75.8017 32.0425 75.5956 32.2167 75.4405 32.4327C75.2753 32.6668 75.1559 32.9301 75.0885 33.2087C75.0094 33.5293 74.9708 33.8585 74.9735 34.1887C74.9714 34.5107 75.0029 34.8321 75.0675 35.1477C75.1217 35.426 75.2279 35.6917 75.3805 35.9307C75.5282 36.1548 75.7305 36.3376 75.9685 36.4617C76.2538 36.6027 76.5694 36.6714 76.8875 36.6617C77.1874 36.6691 77.4849 36.6079 77.7575 36.4827C77.9977 36.3686 78.2059 36.1969 78.3635 35.9827C78.5289 35.7502 78.6471 35.4876 78.7115 35.2097C78.7888 34.8864 78.8264 34.555 78.8235 34.2227" fill="#231F20"/>
<path d="M86.1424 36.373C86.1424 36.451 86.1424 36.519 86.1354 36.573C86.132 36.622 86.124 36.6705 86.1114 36.718C86.1008 36.7527 86.0867 36.7862 86.0693 36.818C86.0384 36.8661 86.0014 36.9101 85.9593 36.949C85.8696 37.0306 85.7714 37.1023 85.6663 37.163C85.5182 37.2527 85.3623 37.3286 85.2004 37.39C85.0179 37.4597 84.8299 37.5139 84.6383 37.552C84.4316 37.5937 84.2212 37.6144 84.0104 37.614C83.6038 37.6215 83.2 37.5463 82.8234 37.393C82.4864 37.2519 82.1891 37.0304 81.9573 36.748C81.7122 36.4398 81.5316 36.0855 81.4264 35.706C81.2975 35.2422 81.2359 34.7623 81.2434 34.281C81.2317 33.7466 81.3073 33.214 81.4674 32.704C81.5939 32.3052 81.8031 31.9375 82.0814 31.625C82.3351 31.3489 82.6493 31.1354 82.9994 31.001C83.3644 30.8642 83.7516 30.7964 84.1414 30.801C84.3347 30.8004 84.5276 30.8189 84.7174 30.856C84.8925 30.8898 85.0644 30.9383 85.2314 31.001C85.3771 31.0556 85.5168 31.1249 85.6484 31.208C85.7434 31.2657 85.8325 31.3327 85.9144 31.408C85.9563 31.448 85.9945 31.4919 86.0283 31.539C86.0503 31.5746 86.0675 31.6129 86.0794 31.653C86.0941 31.7012 86.1035 31.7508 86.1074 31.801C86.1074 31.856 86.1144 31.925 86.1144 32.008C86.1239 32.1365 86.1026 32.2654 86.0524 32.384C86.0393 32.4141 86.0183 32.44 85.9914 32.4589C85.9646 32.4778 85.9331 32.4889 85.9004 32.491C85.8103 32.4816 85.7262 32.4413 85.6624 32.377C85.553 32.2868 85.4389 32.2027 85.3204 32.125C85.1632 32.0234 84.9955 31.9389 84.8204 31.873C84.598 31.7927 84.3627 31.754 84.1264 31.759C83.88 31.7474 83.6348 31.7993 83.4143 31.9098C83.1938 32.0203 83.0055 32.1857 82.8674 32.39C82.5407 32.9449 82.3891 33.5855 82.4324 34.228C82.4272 34.582 82.4655 34.9353 82.5464 35.28C82.6087 35.5508 82.7225 35.8071 82.8814 36.035C83.0197 36.2302 83.2065 36.3859 83.4234 36.487C83.6546 36.5895 83.9055 36.6401 84.1584 36.635C84.3943 36.6399 84.6289 36.5978 84.8484 36.511C85.0286 36.4378 85.2008 36.3463 85.3623 36.238C85.5077 36.1393 85.6297 36.0497 85.7284 35.969C85.7912 35.906 85.8718 35.8638 85.9593 35.848C85.9893 35.8472 86.0186 35.8568 86.0424 35.875C86.0695 35.9004 86.0895 35.9325 86.1004 35.968C86.1189 36.0217 86.1306 36.0774 86.1354 36.134C86.1427 36.2131 86.146 36.2925 86.1454 36.372" fill="#231F20"/>
<path d="M92.2158 37.3229C92.2173 37.3465 92.213 37.3701 92.2034 37.3916C92.1939 37.4132 92.1792 37.4322 92.1608 37.4469C92.1151 37.4781 92.0633 37.4993 92.0088 37.5089C91.9154 37.5254 91.8206 37.5324 91.7258 37.5299C91.63 37.5319 91.5343 37.5248 91.4398 37.5089C91.3838 37.5014 91.3305 37.4801 91.2848 37.4469C91.2681 37.4311 91.2551 37.4118 91.2468 37.3903C91.2385 37.3689 91.2351 37.3459 91.2368 37.3229V36.7019C90.979 36.9816 90.6715 37.2109 90.3298 37.3779C89.9998 37.5382 89.6376 37.621 89.2708 37.6199C88.9703 37.6236 88.671 37.5805 88.3838 37.4919C88.1358 37.4159 87.9058 37.2904 87.7078 37.1229C87.52 36.9601 87.3713 36.7571 87.2728 36.5289C87.1657 36.276 87.1129 36.0035 87.1178 35.7289C87.1097 35.4119 87.1834 35.0982 87.3318 34.8179C87.4788 34.5554 87.6901 34.3345 87.9458 34.1759C88.2476 33.992 88.5792 33.8623 88.9258 33.7929C89.3533 33.7041 89.7892 33.6615 90.2258 33.6659H91.0808V33.1829C91.0839 32.9688 91.0583 32.7553 91.0048 32.5479C90.9614 32.3774 90.8773 32.2199 90.7598 32.0889C90.6391 31.9618 90.4885 31.8669 90.3218 31.8129C90.1074 31.7456 89.8834 31.7142 89.6588 31.7199C89.4036 31.7164 89.1493 31.7501 88.9038 31.8199C88.703 31.8781 88.507 31.952 88.3178 32.0409C88.1498 32.1219 88.0088 32.1949 87.8968 32.2619C87.8219 32.3148 87.7355 32.3491 87.6448 32.3619C87.6093 32.3635 87.5743 32.3537 87.5448 32.3339C87.5144 32.3127 87.4894 32.2846 87.4718 32.2519C87.4485 32.2076 87.4333 32.1595 87.4268 32.1099C87.417 32.0474 87.4123 31.9842 87.4128 31.9209C87.4103 31.8293 87.4184 31.7377 87.4368 31.6479C87.4566 31.5746 87.4972 31.5086 87.5538 31.4579C87.6513 31.3741 87.7592 31.3032 87.8748 31.2469C88.0433 31.1594 88.2185 31.0855 88.3988 31.0259C88.6106 30.9555 88.8272 30.9 89.0468 30.8599C89.2809 30.8161 89.5186 30.794 89.7568 30.7939C90.142 30.7852 90.5263 30.8364 90.8958 30.9459C91.1811 31.0306 91.4415 31.1833 91.6548 31.3909C91.853 31.5952 91.9977 31.8452 92.0758 32.1189C92.1686 32.4487 92.2127 32.7904 92.2068 33.1329L92.2158 37.3229ZM91.0838 34.4879H90.1108C89.8374 34.4839 89.5643 34.5104 89.2968 34.5669C89.0931 34.6089 88.8991 34.6886 88.7248 34.8019C88.5823 34.8946 88.4667 35.0233 88.3898 35.1749C88.316 35.3311 88.2794 35.5022 88.2828 35.6749C88.2761 35.8176 88.3 35.9601 88.353 36.0927C88.4059 36.2253 88.4867 36.3451 88.5898 36.4439C88.8285 36.6465 89.1363 36.749 89.4488 36.7299C89.7414 36.7314 90.0288 36.6525 90.2798 36.5019C90.5797 36.3095 90.8493 36.0736 91.0798 35.8019L91.0838 34.4879Z" fill="#231F20"/>
<path d="M99.5756 30.9279C99.6267 30.9218 99.6785 30.9269 99.7274 30.943C99.7763 30.9591 99.8211 30.9857 99.8586 31.0209C99.9145 31.1005 99.9414 31.1969 99.9346 31.2939V37.3119C99.9356 37.3451 99.9258 37.3778 99.9066 37.4049C99.8821 37.4347 99.8499 37.4572 99.8136 37.4699C99.757 37.4916 99.6978 37.5057 99.6376 37.5119C99.5482 37.5219 99.4584 37.5266 99.3686 37.5259C99.274 37.5268 99.1795 37.5222 99.0856 37.5119C99.0253 37.5057 98.9661 37.4916 98.9096 37.4699C98.8732 37.4571 98.8411 37.4346 98.8166 37.4049C98.7977 37.3777 98.7883 37.345 98.7896 37.3119V31.8729H95.5816V35.3359C95.5617 35.6698 95.6271 36.0033 95.7716 36.3049C95.8432 36.4171 95.9447 36.5071 96.0646 36.5648C96.1846 36.6226 96.3182 36.6458 96.4506 36.6319C96.5458 36.6331 96.6408 36.6227 96.7336 36.6009C96.8166 36.5799 96.8896 36.5589 96.9546 36.5349C97.0196 36.5109 97.0736 36.4899 97.1206 36.4689C97.1592 36.4499 97.2015 36.4394 97.2446 36.4379C97.2676 36.438 97.2903 36.4439 97.3106 36.4549C97.334 36.4704 97.3511 36.4938 97.3586 36.5209C97.3725 36.5637 97.3829 36.6075 97.3896 36.6519C97.3996 36.7204 97.4043 36.7897 97.4036 36.8589C97.4062 36.9643 97.3968 37.0697 97.3756 37.1729C97.3633 37.2368 97.3347 37.2964 97.2926 37.3459C97.2452 37.3922 97.1891 37.4285 97.1276 37.4529C97.0463 37.4874 96.9619 37.5139 96.8756 37.5319C96.7809 37.5526 96.6809 37.5699 96.5756 37.5839C96.4701 37.5978 96.3639 37.6048 96.2576 37.6049C95.9762 37.6115 95.6958 37.5682 95.4296 37.4769C95.2106 37.3996 95.0155 37.2666 94.8636 37.0909C94.7072 36.9004 94.5974 36.6762 94.5426 36.4359C94.4713 36.1295 94.4377 35.8155 94.4426 35.5009V31.8729H93.5726C93.5374 31.8719 93.5032 31.861 93.474 31.8413C93.4448 31.8217 93.4217 31.7941 93.4076 31.7619C93.3584 31.649 93.3371 31.5258 93.3456 31.4029C93.3443 31.3289 93.35 31.2549 93.3626 31.1819C93.3715 31.131 93.3866 31.0812 93.4076 31.0339C93.422 30.9995 93.4473 30.9707 93.4796 30.9519C93.5103 30.9356 93.5447 30.9273 93.5796 30.9279H94.4426V29.4519C94.4424 29.4203 94.4507 29.3892 94.4666 29.3619C94.4887 29.3292 94.52 29.3038 94.5566 29.2889C94.6126 29.2649 94.6719 29.2498 94.7326 29.2439C94.8242 29.2336 94.9164 29.2289 95.0086 29.2299C95.1031 29.2288 95.1976 29.2334 95.2916 29.2439C95.3513 29.2492 95.4098 29.2645 95.4646 29.2889C95.5004 29.305 95.5315 29.3302 95.5546 29.3619C95.5728 29.3884 95.5826 29.4198 95.5826 29.4519V30.9279H99.5756ZM100.066 29.0099C100.088 29.2045 100.034 29.4001 99.9136 29.5549C99.7511 29.6698 99.5523 29.7213 99.3546 29.6999C99.1607 29.721 98.9658 29.6705 98.8066 29.5579C98.6889 29.4059 98.6355 29.2139 98.6576 29.0229C98.635 28.8284 98.6896 28.6327 98.8096 28.4779C98.972 28.3631 99.1708 28.3115 99.3686 28.3329C99.5623 28.3116 99.7572 28.3617 99.9166 28.4739C100.034 28.6261 100.087 28.8181 100.065 29.0089" fill="#231F20"/>
<path d="M107.822 34.1437C107.827 34.6178 107.759 35.0899 107.622 35.5437C107.499 35.9475 107.295 36.3219 107.022 36.6437C106.75 36.9572 106.41 37.2039 106.028 37.3647C105.59 37.5451 105.119 37.6333 104.645 37.6237C104.189 37.6333 103.736 37.5559 103.31 37.3957C102.945 37.2542 102.62 37.0271 102.362 36.7337C102.099 36.4265 101.906 36.0663 101.796 35.6777C101.666 35.2202 101.603 34.7462 101.61 34.2707C101.606 33.7966 101.673 33.3247 101.81 32.8707C101.929 32.4669 102.131 32.0924 102.403 31.7707C102.673 31.4582 103.012 31.2125 103.393 31.0527C103.833 30.8742 104.305 30.7875 104.78 30.7977C105.235 30.788 105.688 30.8654 106.115 31.0257C106.48 31.167 106.805 31.3941 107.064 31.6877C107.326 31.9954 107.52 32.3553 107.633 32.7437C107.765 33.1983 107.829 33.6702 107.823 34.1437M106.643 34.2197C106.644 33.9 106.613 33.5809 106.549 33.2677C106.494 32.989 106.389 32.7227 106.239 32.4817C106.094 32.2551 105.892 32.0706 105.654 31.9467C105.369 31.8054 105.053 31.7367 104.735 31.7467C104.434 31.7385 104.135 31.7998 103.861 31.9257C103.622 32.0425 103.416 32.2167 103.261 32.4327C103.096 32.6669 102.977 32.9302 102.91 33.2087C102.831 33.5293 102.792 33.8585 102.795 34.1887C102.793 34.5107 102.825 34.8321 102.889 35.1477C102.943 35.4259 103.05 35.6915 103.202 35.9307C103.349 36.1548 103.552 36.3376 103.79 36.4617C104.075 36.6027 104.391 36.6714 104.709 36.6617C105.009 36.6691 105.306 36.6079 105.579 36.4827C105.819 36.3686 106.027 36.1968 106.185 35.9827C106.35 35.7502 106.468 35.4876 106.533 35.2097C106.61 34.8864 106.648 34.555 106.645 34.2227" fill="#231F20"/>
<path d="M114.844 37.318C114.845 37.3511 114.836 37.3836 114.817 37.411C114.794 37.4404 114.762 37.4632 114.727 37.477C114.672 37.4985 114.614 37.5123 114.555 37.518C114.464 37.5284 114.371 37.533 114.279 37.532C114.185 37.5332 114.09 37.5285 113.996 37.518C113.937 37.5125 113.879 37.4987 113.824 37.477C113.789 37.4634 113.758 37.4407 113.734 37.411C113.715 37.3839 113.705 37.3512 113.706 37.318V33.682C113.713 33.3947 113.685 33.1076 113.623 32.827C113.576 32.6282 113.494 32.4391 113.382 32.268C113.279 32.1142 113.138 31.9904 112.971 31.909C112.789 31.8231 112.59 31.7806 112.388 31.785C112.079 31.7926 111.779 31.8975 111.532 32.085C111.193 32.3391 110.89 32.6386 110.632 32.975V37.315C110.633 37.3482 110.623 37.3808 110.604 37.408C110.581 37.4375 110.55 37.4603 110.514 37.474C110.459 37.4957 110.401 37.5095 110.341 37.515C110.247 37.5255 110.153 37.5302 110.058 37.529C109.966 37.53 109.874 37.5254 109.782 37.515C109.722 37.5091 109.663 37.4953 109.606 37.474C109.57 37.4615 109.539 37.4385 109.516 37.408C109.499 37.38 109.491 37.3477 109.492 37.315V31.109C109.491 31.0767 109.499 31.0448 109.513 31.016C109.533 30.9852 109.562 30.9612 109.596 30.947C109.646 30.9238 109.7 30.9096 109.755 30.905C109.84 30.8974 109.925 30.894 110.01 30.895C110.111 30.895 110.195 30.8983 110.262 30.905C110.316 30.9086 110.369 30.9229 110.417 30.947C110.449 30.9632 110.476 30.9869 110.496 31.016C110.513 31.0441 110.521 31.0764 110.52 31.109V31.93C110.815 31.5838 111.169 31.2929 111.565 31.071C111.888 30.8954 112.25 30.8017 112.617 30.798C112.977 30.7868 113.335 30.8587 113.662 31.008C113.933 31.1383 114.168 31.3313 114.349 31.571C114.529 31.8172 114.657 32.0976 114.725 32.395C114.807 32.7677 114.845 33.1485 114.839 33.53L114.844 37.318Z" fill="#231F20"/>
<path d="M125.736 31.1775C125.742 31.5904 125.667 32.0005 125.515 32.3845C125.375 32.7333 125.159 33.0468 124.884 33.3025C124.592 33.5661 124.249 33.766 123.877 33.8895C123.417 34.037 122.935 34.1069 122.453 34.0965H121.438V37.3105C121.439 37.3464 121.428 37.3817 121.407 37.4105C121.381 37.4418 121.346 37.4645 121.307 37.4755C121.248 37.4953 121.188 37.5094 121.128 37.5175C120.937 37.5404 120.745 37.5404 120.555 37.5175C120.492 37.5091 120.431 37.495 120.372 37.4755C120.332 37.4656 120.297 37.4427 120.272 37.4105C120.252 37.3807 120.243 37.3458 120.245 37.3105V29.0735C120.237 29.0013 120.247 28.9284 120.272 28.8603C120.297 28.7922 120.337 28.7307 120.39 28.6805C120.48 28.604 120.595 28.5622 120.714 28.5625H122.626C122.819 28.5625 123.004 28.5705 123.181 28.5865C123.392 28.6072 123.601 28.6406 123.809 28.6865C124.069 28.748 124.317 28.8492 124.547 28.9865C124.79 29.1251 125.006 29.3064 125.185 29.5215C125.362 29.7401 125.497 29.9892 125.585 30.2565C125.682 30.5536 125.73 30.8648 125.727 31.1775M124.478 31.2775C124.49 30.9618 124.421 30.6482 124.278 30.3665C124.162 30.1439 123.989 29.9559 123.778 29.8215C123.588 29.7056 123.377 29.6281 123.157 29.5935C122.95 29.5622 122.741 29.5461 122.533 29.5455H121.433V33.1265H122.502C122.805 33.1353 123.108 33.0885 123.395 32.9885C123.62 32.9051 123.824 32.7745 123.995 32.6055C124.158 32.4387 124.283 32.2384 124.361 32.0185C124.445 31.7804 124.487 31.5292 124.485 31.2765" fill="#231F20"/>
<path d="M128.553 37.3181C128.554 37.3512 128.545 37.3838 128.526 37.4111C128.502 37.4405 128.471 37.4632 128.436 37.4771C128.381 37.4987 128.323 37.5125 128.263 37.5181C128.169 37.5285 128.075 37.5332 127.98 37.5321C127.888 37.5331 127.796 37.5284 127.704 37.5181C127.644 37.5123 127.585 37.4985 127.528 37.4771C127.492 37.4647 127.461 37.4417 127.438 37.4111C127.421 37.3831 127.413 37.3508 127.414 37.3181V28.1001C127.413 28.0652 127.421 28.0305 127.438 28.0001C127.46 27.9678 127.491 27.9435 127.528 27.9311C127.585 27.9094 127.644 27.8953 127.704 27.8891C127.796 27.879 127.888 27.8743 127.98 27.8751C128.075 27.8742 128.169 27.8789 128.263 27.8891C128.323 27.895 128.381 27.9091 128.436 27.9311C128.472 27.9449 128.504 27.9689 128.526 28.0001C128.545 28.0299 128.555 28.0648 128.553 28.1001V37.3181Z" fill="#231F20"/>
<path d="M135.341 37.3229C135.342 37.3465 135.338 37.3701 135.329 37.3917C135.319 37.4133 135.304 37.4323 135.286 37.4469C135.24 37.4781 135.188 37.4993 135.134 37.5089C135.04 37.5254 134.946 37.5324 134.851 37.5299C134.755 37.5319 134.659 37.5249 134.565 37.5089C134.509 37.5014 134.456 37.4801 134.41 37.4469C134.393 37.4311 134.38 37.4118 134.372 37.3903C134.364 37.3689 134.36 37.3459 134.362 37.3229V36.7019C134.104 36.9816 133.796 37.2109 133.455 37.3779C133.125 37.5382 132.763 37.621 132.396 37.6199C132.095 37.6236 131.796 37.5805 131.509 37.4919C131.261 37.4159 131.031 37.2904 130.833 37.1229C130.645 36.9601 130.496 36.7571 130.398 36.5289C130.291 36.276 130.238 36.0035 130.243 35.7289C130.235 35.4119 130.308 35.0982 130.457 34.8179C130.604 34.5554 130.815 34.3345 131.071 34.1759C131.373 33.992 131.704 33.8623 132.051 33.7929C132.478 33.7041 132.914 33.6615 133.351 33.6659H134.206V33.1829C134.209 32.9688 134.183 32.7553 134.13 32.5479C134.086 32.3774 134.002 32.2199 133.885 32.0889C133.764 31.9618 133.614 31.8669 133.447 31.8129C133.232 31.7456 133.008 31.7142 132.784 31.7199C132.529 31.7164 132.274 31.7501 132.029 31.8199C131.828 31.8781 131.632 31.952 131.443 32.0409C131.275 32.1219 131.134 32.1949 131.022 32.2619C130.947 32.3148 130.861 32.3491 130.77 32.3619C130.734 32.3635 130.699 32.3537 130.67 32.3339C130.639 32.3127 130.614 32.2846 130.597 32.2519C130.574 32.2076 130.558 32.1595 130.552 32.1099C130.542 32.0474 130.537 31.9842 130.538 31.9209C130.535 31.8293 130.543 31.7377 130.562 31.6479C130.582 31.5746 130.622 31.5086 130.679 31.4579C130.776 31.3741 130.884 31.3032 131 31.2469C131.168 31.1594 131.344 31.0855 131.524 31.0259C131.736 30.9555 131.952 30.9 132.172 30.8599C132.406 30.8161 132.644 30.794 132.882 30.7939C133.267 30.7852 133.651 30.8364 134.021 30.9459C134.306 31.0306 134.567 31.1833 134.78 31.3909C134.978 31.5952 135.123 31.8453 135.201 32.1189C135.294 32.4487 135.338 32.7904 135.332 33.1329L135.341 37.3229ZM134.209 34.4879H133.236C132.962 34.4839 132.689 34.5104 132.422 34.5669C132.218 34.6088 132.023 34.6885 131.849 34.8019C131.706 34.8946 131.591 35.0233 131.514 35.1749C131.44 35.3311 131.403 35.5022 131.407 35.6749C131.4 35.8176 131.424 35.9601 131.477 36.0927C131.53 36.2253 131.611 36.3451 131.714 36.4439C131.953 36.6465 132.26 36.7489 132.573 36.7299C132.865 36.7314 133.153 36.6525 133.404 36.5019C133.704 36.3095 133.973 36.0736 134.204 35.8019L134.209 34.4879Z" fill="#231F20"/>
<path d="M141.941 30.9267V30.2807C141.935 29.9055 141.976 29.5309 142.062 29.1657C142.127 28.8875 142.253 28.6271 142.432 28.4037C142.598 28.2057 142.813 28.0547 143.055 27.9657C143.338 27.8664 143.636 27.8186 143.936 27.8247C144.092 27.8249 144.248 27.84 144.401 27.8697C144.523 27.8918 144.642 27.9252 144.756 27.9697C144.817 27.991 144.873 28.0225 144.923 28.0627C144.952 28.0937 144.975 28.13 144.992 28.1697C145.011 28.2204 145.024 28.2736 145.029 28.3277C145.037 28.4022 145.04 28.4769 145.039 28.5517C145.04 28.6219 145.037 28.692 145.029 28.7617C145.025 28.8056 145.014 28.8486 144.998 28.8897C144.989 28.9158 144.972 28.9385 144.949 28.9547C144.931 28.9662 144.909 28.9721 144.887 28.9717C144.818 28.9617 144.75 28.9408 144.687 28.9097C144.586 28.8674 144.481 28.8339 144.373 28.8097C144.258 28.7839 144.14 28.7711 144.022 28.7717C143.872 28.7678 143.724 28.7961 143.587 28.8547C143.466 28.9104 143.365 29.0006 143.296 29.1137C143.214 29.2539 143.159 29.4082 143.134 29.5687C143.097 29.7931 143.08 30.0203 143.082 30.2477V30.9237H144.47C144.504 30.9233 144.539 30.9316 144.57 30.9477C144.602 30.9668 144.628 30.9959 144.643 31.0307C144.663 31.0781 144.678 31.1278 144.687 31.1787C144.7 31.2517 144.706 31.3257 144.704 31.3997C144.713 31.5226 144.691 31.6457 144.643 31.7587C144.628 31.7909 144.605 31.8183 144.575 31.8378C144.546 31.8573 144.512 31.868 144.476 31.8687H143.083V37.3127C143.084 37.346 143.075 37.3786 143.055 37.4057C143.032 37.4352 143.001 37.458 142.966 37.4717C142.91 37.4938 142.852 37.5079 142.792 37.5137C142.699 37.524 142.604 37.5286 142.509 37.5277C142.417 37.5285 142.325 37.5239 142.233 37.5137C142.173 37.5074 142.114 37.4933 142.057 37.4717C142.022 37.4592 141.99 37.4363 141.967 37.4057C141.951 37.3778 141.942 37.3454 141.943 37.3127V31.8717H138.705V35.3347C138.686 35.6686 138.751 36.002 138.895 36.3037C138.967 36.4161 139.069 36.5062 139.189 36.5642C139.309 36.6221 139.443 36.6455 139.575 36.6317C139.671 36.6331 139.766 36.6227 139.858 36.6007C139.933 36.5828 140.007 36.5611 140.079 36.5357C140.143 36.5127 140.2 36.4907 140.246 36.4697C140.284 36.4509 140.326 36.4403 140.369 36.4387C140.392 36.4387 140.415 36.4445 140.434 36.4557C140.458 36.4711 140.475 36.4946 140.483 36.5217C140.497 36.5644 140.507 36.6082 140.514 36.6527C140.524 36.7212 140.528 36.7905 140.527 36.8597C140.53 36.9651 140.521 37.0704 140.501 37.1737C140.488 37.2376 140.46 37.2972 140.417 37.3467C140.37 37.3931 140.313 37.4295 140.251 37.4537C140.17 37.4883 140.086 37.5148 139.999 37.5327C139.905 37.5534 139.805 37.5704 139.699 37.5837C139.594 37.5976 139.489 37.6046 139.382 37.6047C139.101 37.6111 138.821 37.5678 138.554 37.4767C138.336 37.3994 138.14 37.2664 137.988 37.0907C137.832 36.9002 137.722 36.676 137.667 36.4357C137.596 36.1293 137.562 35.8153 137.567 35.5007V31.8717H136.699C136.663 31.871 136.629 31.8603 136.6 31.8408C136.57 31.8213 136.547 31.7939 136.532 31.7617C136.484 31.6487 136.462 31.5256 136.47 31.4027C136.469 31.3284 136.474 31.2541 136.485 31.1807C136.494 31.1297 136.509 31.08 136.531 31.0327C136.545 30.9979 136.571 30.9687 136.604 30.9497C136.634 30.9336 136.669 30.9253 136.703 30.9257H137.566V29.4497C137.566 29.4181 137.574 29.387 137.591 29.3597C137.612 29.3268 137.644 29.3013 137.68 29.2867C137.737 29.2629 137.796 29.2477 137.856 29.2417C137.948 29.2316 138.04 29.2269 138.132 29.2277C138.227 29.2268 138.322 29.2315 138.415 29.2417C138.475 29.2473 138.534 29.2625 138.588 29.2867C138.624 29.3028 138.655 29.328 138.678 29.3597C138.696 29.3863 138.706 29.4177 138.705 29.4497V30.9257L141.941 30.9267Z" fill="#231F20"/>
<path d="M151.424 34.1437C151.43 34.6178 151.362 35.09 151.224 35.5437C151.102 35.9475 150.898 36.3219 150.624 36.6437C150.353 36.9572 150.013 37.2039 149.63 37.3647C149.192 37.5451 148.721 37.6333 148.247 37.6237C147.792 37.6333 147.339 37.5559 146.912 37.3957C146.548 37.2542 146.223 37.0271 145.964 36.7337C145.702 36.4266 145.509 36.0664 145.398 35.6777C145.268 35.2203 145.205 34.7463 145.211 34.2707C145.207 33.7966 145.275 33.3247 145.411 32.8707C145.531 32.4669 145.733 32.0924 146.004 31.7707C146.275 31.4582 146.613 31.2125 146.994 31.0527C147.435 30.8742 147.907 30.7874 148.381 30.7977C148.837 30.788 149.29 30.8654 149.716 31.0257C150.081 31.167 150.407 31.3941 150.665 31.6877C150.928 31.9954 151.122 32.3553 151.234 32.7437C151.367 33.1984 151.431 33.6702 151.424 34.1437ZM150.244 34.2197C150.246 33.9 150.214 33.5809 150.15 33.2677C150.096 32.989 149.991 32.7227 149.84 32.4817C149.696 32.2551 149.494 32.0706 149.255 31.9467C148.97 31.8054 148.655 31.7367 148.336 31.7467C148.035 31.7385 147.736 31.7998 147.462 31.9257C147.224 32.0426 147.017 32.2167 146.862 32.4327C146.698 32.6669 146.578 32.9302 146.511 33.2087C146.432 33.5293 146.394 33.8585 146.396 34.1887C146.395 34.5107 146.426 34.8321 146.49 35.1477C146.545 35.4259 146.651 35.6915 146.803 35.9307C146.951 36.1548 147.153 36.3376 147.391 36.4617C147.677 36.6027 147.992 36.6714 148.31 36.6617C148.61 36.6691 148.908 36.6079 149.18 36.4827C149.421 36.3687 149.629 36.1969 149.786 35.9827C149.952 35.7502 150.07 35.4876 150.134 35.2097C150.212 34.8864 150.249 34.555 150.246 34.2227" fill="#231F20"/>
<path d="M156.73 31.514C156.73 31.614 156.73 31.7 156.723 31.769C156.721 31.8239 156.712 31.8784 156.696 31.931C156.685 31.9643 156.667 31.995 156.644 32.021C156.632 32.0316 156.619 32.0399 156.604 32.0452C156.589 32.0505 156.573 32.0528 156.558 32.052C156.511 32.0498 156.466 32.0393 156.424 32.021C156.371 32 156.311 31.979 156.245 31.959C156.179 31.939 156.103 31.919 156.021 31.9C155.932 31.8812 155.842 31.8721 155.752 31.873C155.636 31.8733 155.521 31.8968 155.414 31.942C155.286 31.9987 155.169 32.0754 155.066 32.169C154.924 32.2962 154.796 32.4373 154.683 32.59C154.549 32.7646 154.402 32.9786 154.242 33.232V37.316C154.243 37.3492 154.233 37.3818 154.214 37.409C154.19 37.4385 154.159 37.4612 154.124 37.475C154.068 37.4965 154.01 37.5103 153.951 37.516C153.857 37.5265 153.762 37.5311 153.668 37.53C153.575 37.531 153.483 37.5263 153.392 37.516C153.332 37.5098 153.272 37.496 153.216 37.475C153.18 37.4624 153.148 37.4394 153.126 37.409C153.109 37.381 153.1 37.3486 153.102 37.316V31.107C153.101 31.0744 153.108 31.0421 153.123 31.013C153.143 30.9823 153.172 30.9583 153.206 30.944C153.256 30.9205 153.31 30.9063 153.365 30.902C153.449 30.8943 153.535 30.891 153.62 30.892C153.72 30.892 153.805 30.892 153.872 30.902C153.926 30.9053 153.978 30.9196 154.027 30.944C154.058 30.9603 154.085 30.984 154.106 31.013C154.122 31.0414 154.131 31.074 154.13 31.107V32.007C154.273 31.7923 154.433 31.5894 154.609 31.4C154.737 31.2623 154.879 31.1387 155.033 31.031C155.155 30.9468 155.29 30.8839 155.433 30.845C155.563 30.8102 155.698 30.7927 155.833 30.793C155.892 30.793 155.959 30.7963 156.033 30.803C156.113 30.8105 156.192 30.8232 156.271 30.841C156.346 30.8575 156.421 30.8782 156.495 30.903C156.546 30.9179 156.594 30.9412 156.637 30.972C156.66 30.9897 156.678 31.0122 156.692 31.038C156.702 31.0635 156.71 31.0899 156.716 31.117C156.724 31.1635 156.729 31.2107 156.73 31.258C156.73 31.32 156.73 31.404 156.73 31.51" fill="#231F20"/>
<path d="M167.239 37.318C167.24 37.3511 167.231 37.3837 167.212 37.411C167.189 37.4404 167.158 37.4632 167.122 37.477C167.067 37.4986 167.009 37.5124 166.949 37.518C166.858 37.5284 166.766 37.533 166.673 37.532C166.579 37.5332 166.484 37.5285 166.39 37.518C166.33 37.5122 166.271 37.4984 166.214 37.477C166.178 37.4639 166.146 37.4411 166.121 37.411C166.102 37.3838 166.092 37.3512 166.093 37.318V33.544C166.095 33.3033 166.072 33.063 166.024 32.827C165.986 32.6286 165.912 32.4389 165.806 32.267C165.711 32.116 165.578 31.9923 165.42 31.908C165.249 31.8219 165.06 31.7793 164.868 31.784C164.579 31.7932 164.301 31.8988 164.078 32.084C163.755 32.3464 163.462 32.645 163.206 32.974V37.314C163.207 37.3472 163.198 37.3799 163.178 37.407C163.154 37.437 163.122 37.4598 163.085 37.473C163.029 37.4943 162.97 37.5081 162.909 37.514C162.727 37.5323 162.544 37.5323 162.361 37.514C162.3 37.5083 162.24 37.4945 162.182 37.473C162.146 37.4605 162.115 37.4375 162.092 37.407C162.076 37.3789 162.067 37.3467 162.068 37.314V33.544C162.071 33.3029 162.045 33.0623 161.992 32.827C161.949 32.6291 161.872 32.44 161.765 32.268C161.67 32.1176 161.539 31.994 161.382 31.909C161.213 31.8226 161.024 31.7799 160.833 31.785C160.543 31.7946 160.264 31.9001 160.04 32.085C159.716 32.3457 159.424 32.6445 159.17 32.975V37.315C159.171 37.3481 159.162 37.3807 159.143 37.408C159.12 37.4374 159.089 37.4601 159.053 37.474C158.998 37.4956 158.94 37.5094 158.88 37.515C158.786 37.5254 158.692 37.5301 158.597 37.529C158.505 37.53 158.413 37.5254 158.321 37.515C158.261 37.5092 158.202 37.4954 158.145 37.474C158.109 37.4616 158.078 37.4386 158.055 37.408C158.038 37.38 158.03 37.3477 158.031 37.315V31.109C158.03 31.0767 158.038 31.0448 158.052 31.016C158.072 30.9851 158.101 30.9611 158.135 30.947C158.185 30.9238 158.239 30.9096 158.293 30.905C158.378 30.8974 158.463 30.894 158.548 30.895C158.648 30.895 158.733 30.895 158.8 30.905C158.854 30.9087 158.907 30.9229 158.955 30.947C158.987 30.9633 159.014 30.987 159.034 31.016C159.051 31.0441 159.059 31.0764 159.058 31.109V31.93C159.348 31.5893 159.692 31.299 160.076 31.071C160.381 30.8956 160.725 30.8016 161.076 30.798C161.311 30.795 161.544 30.8253 161.77 30.888C161.963 30.9425 162.146 31.0276 162.312 31.14C162.466 31.2457 162.601 31.3761 162.712 31.526C162.825 31.6803 162.918 31.8483 162.988 32.026C163.173 31.8226 163.37 31.6312 163.578 31.453C163.746 31.3102 163.926 31.1833 164.116 31.074C164.274 30.9837 164.442 30.9131 164.616 30.864C164.777 30.8204 164.943 30.7982 165.11 30.798C165.458 30.7868 165.803 30.8588 166.117 31.008C166.379 31.1402 166.605 31.3333 166.776 31.571C166.95 31.8188 167.072 32.099 167.135 32.395C167.208 32.7233 167.244 33.0587 167.242 33.395L167.239 37.318Z" fill="#231F20"/>
<path d="M168.172 4.01045V1.20145H169.366C169.587 1.1911 169.807 1.21677 170.02 1.27745C170.156 1.3277 170.271 1.42249 170.347 1.54645C170.43 1.67883 170.472 1.83234 170.47 1.98845C170.477 2.17983 170.41 2.36663 170.284 2.51045C170.136 2.66017 169.939 2.75231 169.729 2.77045C169.84 2.83427 169.941 2.91376 170.029 3.00645C170.15 3.14874 170.258 3.30132 170.352 3.46245L170.694 4.01045H170.018L169.608 3.40145C169.517 3.25743 169.417 3.11947 169.308 2.98845C169.261 2.93622 169.202 2.89608 169.137 2.87145C169.044 2.8459 168.948 2.83511 168.852 2.83945H168.737V4.01045H168.172ZM168.739 2.39045H169.159C169.329 2.39905 169.5 2.38764 169.668 2.35645C169.733 2.33564 169.789 2.29375 169.827 2.23745C169.867 2.17465 169.887 2.10097 169.884 2.02645C169.888 1.94333 169.861 1.8617 169.808 1.79745C169.752 1.73672 169.677 1.69774 169.595 1.68745C169.549 1.68079 169.411 1.67779 169.181 1.67845H168.739V2.39045Z" fill="#231F20"/>
<path d="M169.207 5.07025C168.721 5.07025 168.246 4.92615 167.842 4.65617C167.438 4.38619 167.123 4.00246 166.937 3.5535C166.751 3.10455 166.702 2.61053 166.797 2.13391C166.892 1.6573 167.126 1.21951 167.47 0.87589C167.813 0.532272 168.251 0.298266 168.728 0.203462C169.204 0.108658 169.698 0.157315 170.147 0.343279C170.596 0.529244 170.98 0.844164 171.25 1.24822C171.52 1.65227 171.664 2.1273 171.664 2.61325C171.663 3.26464 171.404 3.88913 170.943 4.34974C170.483 4.81034 169.858 5.06946 169.207 5.07025ZM169.207 0.333251C168.756 0.333251 168.316 0.466912 167.941 0.717332C167.566 0.967752 167.274 1.32368 167.101 1.74012C166.929 2.15655 166.884 2.61478 166.972 3.05686C167.06 3.49894 167.277 3.90502 167.595 4.22375C167.914 4.54247 168.32 4.75952 168.762 4.84746C169.204 4.9354 169.663 4.89026 170.079 4.71777C170.496 4.54528 170.852 4.25318 171.102 3.8784C171.352 3.50362 171.486 3.06299 171.486 2.61225C171.485 2.00807 171.245 1.42885 170.818 1.00163C170.39 0.574408 169.811 0.334045 169.207 0.333251Z" fill="#231F20"/>
</g>
</svg>
