<svg width="53" height="55" viewBox="0 0 53 55" fill="none" xmlns="http://www.w3.org/2000/svg">
<path d="M38.8402 0.818359C47.9356 0.818359 53 5.56503 53 13.6984V41.245C53 49.5117 47.9356 54.1517 38.8402 54.1517H14.1628C5.21167 54.1517 0 49.5117 0 41.245V13.6984C0 5.56503 5.21167 0.818359 14.1628 0.818359H38.8402ZM18.2188 43.9844C17.3354 43.9044 13.2206 37.7517 12.7494 38.445C12.2783 39.1117 17.7476 35.291 18.2188 35.9844C18.6899 36.651 17.3354 38.5517 18.2188 38.445L27.6042 37.4584C28.779 37.3517 32.5729 38.5224 32.5729 37.4584C32.5729 36.365 39.2171 37.565 38.0422 37.4584L18.2188 43.9844ZM38.0422 25.2957L35.3333 32.9844C34.0643 32.9844 22.0833 29.8377 22.0833 30.9844C22.0833 32.131 13.6887 29.4584 14.9578 29.4584L36.9896 30.9844C38.2557 30.9844 30.3646 28.131 30.3646 26.9844C30.3646 25.8377 39.3083 25.2957 38.0422 25.2957ZM23.7587 22.4844L14.1628 19.4844L14.9578 13.245C13.6887 13.245 18.2188 14.149 18.2188 15.2957C18.2188 16.4424 13.6887 17.405 14.9578 17.405H23.7587C25.0278 17.405 26.0583 16.4717 26.0583 15.2957C26.0583 14.1517 25.0278 22.4844 23.7587 22.4844Z" fill="#FF6A58"/>
<path d="M15.6992 22.168L26.0009 28.1296L36.2326 22.203" stroke="white" stroke-width="2" stroke-linecap="round" stroke-linejoin="round"/>
<path d="M26 38.6969V28.1152" stroke="white" stroke-width="2" stroke-linecap="round" stroke-linejoin="round"/>
<path d="M23.5857 16.3818L17.3557 19.8351C15.9441 20.6168 14.7891 22.5768 14.7891 24.1868V30.7784C14.7891 32.3884 15.9441 34.3484 17.3557 35.1301L23.5857 38.5951C24.9157 39.3301 27.0974 39.3301 28.4274 38.5951L34.6574 35.1301C36.0691 34.3484 37.2241 32.3884 37.2241 30.7784V24.1868C37.2241 22.5768 36.0691 20.6168 34.6574 19.8351L28.4274 16.3701C27.0857 15.6351 24.9157 15.6351 23.5857 16.3818Z" stroke="white" stroke-width="2" stroke-linecap="round" stroke-linejoin="round"/>
</svg>
