<svg width="11" height="19" viewBox="0 0 11 19" fill="none" xmlns="http://www.w3.org/2000/svg">
<path id="Path" d="M10.1724 0.00384845L7.63704 0C4.78863 0 2.94787 1.78664 2.94787 4.55194V6.6507H0.398663C0.178381 6.6507 0 6.81964 0 7.02804V10.0689C0 10.2773 0.178585 10.446 0.398663 10.446H2.94787V18.1191C2.94787 18.3275 3.12625 18.4962 3.34653 18.4962H6.67252C6.8928 18.4962 7.07118 18.3273 7.07118 18.1191V10.446H10.0518C10.2721 10.446 10.4505 10.2773 10.4505 10.0689L10.4517 7.02804C10.4517 6.92798 10.4096 6.83215 10.3349 6.76134C10.2603 6.69053 10.1586 6.6507 10.0528 6.6507H7.07118V4.87156C7.07118 4.01643 7.28658 3.58233 8.46406 3.58233L10.172 3.58175C10.3921 3.58175 10.5705 3.4128 10.5705 3.2046V0.380996C10.5705 0.172988 10.3923 0.00423329 10.1724 0.00384845Z" fill="#011C2A"/>
</svg>
