<svg width="17" height="16" viewBox="0 0 17 16" fill="none" xmlns="http://www.w3.org/2000/svg">
<path fill-rule="evenodd" clip-rule="evenodd" d="M4.97004 0.048C5.8718 0.00872726 6.15932 0 8.45638 0C10.7534 0 11.041 0.00945454 11.9419 0.048C12.8429 0.0865454 13.4579 0.222545 13.9961 0.419636C14.5596 0.621091 15.0708 0.936 15.4936 1.34327C15.9241 1.74255 16.2562 2.22545 16.4684 2.75927C16.6775 3.26836 16.8205 3.85018 16.862 4.70109C16.9035 5.55564 16.9128 5.82764 16.9128 8C16.9128 10.1731 16.9028 10.4451 16.862 11.2982C16.8213 12.1491 16.6775 12.7309 16.4684 13.24C16.2562 13.7739 15.9236 14.2576 15.4936 14.6575C15.0708 15.0647 14.5596 15.3789 13.9961 15.5796C13.4579 15.7775 12.8429 15.9127 11.9435 15.952C11.041 15.9913 10.7534 16 8.45638 16C6.15932 16 5.8718 15.9905 4.97004 15.952C4.07059 15.9135 3.45558 15.7775 2.91745 15.5796C2.35312 15.3789 1.84181 15.0642 1.41913 14.6575C0.988919 14.2579 0.655995 13.7745 0.443575 13.2407C0.235241 12.7316 0.0922514 12.1498 0.0507382 11.2989C0.00922512 10.4444 0 10.1724 0 8C0 5.82691 0.00999389 5.55491 0.0507382 4.70255C0.0914826 3.85018 0.235241 3.26836 0.443575 2.75927C0.656309 2.22551 0.989487 1.74205 1.4199 1.34255C1.84198 0.935637 2.35277 0.620686 2.91668 0.419636C3.45481 0.222545 4.06982 0.0872727 4.96927 0.048H4.97004ZM11.8735 1.488C10.9818 1.44945 10.7142 1.44145 8.45638 1.44145C6.19852 1.44145 5.93099 1.44945 5.03923 1.488C4.21435 1.52364 3.76693 1.65382 3.46865 1.76364C3.07428 1.90909 2.79214 2.08145 2.49617 2.36145C2.21561 2.61967 1.99969 2.93402 1.86425 3.28145C1.74816 3.56364 1.61056 3.98691 1.57289 4.76727C1.53214 5.61091 1.52369 5.864 1.52369 8C1.52369 10.136 1.53214 10.3891 1.57289 11.2327C1.61056 12.0131 1.74816 12.4364 1.86425 12.7185C1.99955 13.0655 2.21557 13.3804 2.49617 13.6385C2.76908 13.904 3.10195 14.1084 3.46865 14.2364C3.76693 14.3462 4.21435 14.4764 5.03923 14.512C5.93099 14.5505 6.19775 14.5585 8.45638 14.5585C10.715 14.5585 10.9818 14.5505 11.8735 14.512C12.6984 14.4764 13.1458 14.3462 13.4441 14.2364C13.8385 14.0909 14.1206 13.9185 14.4166 13.6385C14.6972 13.3804 14.9132 13.0655 15.0485 12.7185C15.1646 12.4364 15.3022 12.0131 15.3399 11.2327C15.3806 10.3891 15.3891 10.136 15.3891 8C15.3891 5.864 15.3806 5.61091 15.3399 4.76727C15.3022 3.98691 15.1646 3.56364 15.0485 3.28145C14.8948 2.90836 14.7126 2.64145 14.4166 2.36145C14.1436 2.09605 13.8113 1.89179 13.4441 1.76364C13.1458 1.65382 12.6984 1.52364 11.8735 1.488ZM7.37627 10.4662C7.97948 10.7037 8.65116 10.7358 9.27659 10.5569C9.90202 10.378 10.4424 9.99921 10.8054 9.48527C11.1684 8.97132 11.3316 8.35409 11.267 7.73899C11.2024 7.12388 10.9141 6.54907 10.4513 6.11273C10.1563 5.8338 9.79956 5.62023 9.40682 5.48738C9.01408 5.35453 8.59508 5.30572 8.18 5.34445C7.76492 5.38318 7.36408 5.50849 7.00634 5.71137C6.6486 5.91424 6.34285 6.18963 6.11112 6.51771C5.87938 6.84579 5.72742 7.21839 5.66617 7.6087C5.60492 7.99901 5.63591 8.3973 5.7569 8.77492C5.87789 9.15254 6.08589 9.50008 6.3659 9.79253C6.64591 10.085 6.99098 10.315 7.37627 10.4662ZM5.38287 5.09236C5.78649 4.71053 6.26565 4.40764 6.793 4.20099C7.32036 3.99434 7.88557 3.88798 8.45638 3.88798C9.02718 3.88798 9.59239 3.99434 10.1197 4.20099C10.6471 4.40764 11.1263 4.71053 11.5299 5.09236C11.9335 5.4742 12.2537 5.92751 12.4721 6.4264C12.6905 6.92529 12.803 7.46 12.803 8C12.803 8.54 12.6905 9.07471 12.4721 9.5736C12.2537 10.0725 11.9335 10.5258 11.5299 10.9076C10.7147 11.6788 9.60916 12.112 8.45638 12.112C7.30359 12.112 6.19801 11.6788 5.38287 10.9076C4.56772 10.1365 4.10978 9.09058 4.10978 8C4.10978 6.90942 4.56772 5.86352 5.38287 5.09236ZM13.767 4.50036C13.867 4.41111 13.9471 4.30377 14.0025 4.18471C14.0578 4.06565 14.0874 3.93729 14.0894 3.80722C14.0914 3.67716 14.0658 3.54803 14.0141 3.4275C13.9624 3.30696 13.8857 3.19746 13.7885 3.10548C13.6912 3.0135 13.5755 2.94091 13.4481 2.89201C13.3207 2.84311 13.1842 2.81889 13.0467 2.82079C12.9092 2.82268 12.7735 2.85066 12.6477 2.90305C12.5218 2.95545 12.4084 3.0312 12.314 3.12582C12.1305 3.30984 12.0301 3.55427 12.034 3.80722C12.0379 4.06017 12.1458 4.30173 12.3349 4.48061C12.524 4.6595 12.7793 4.76162 13.0467 4.76531C13.3141 4.769 13.5725 4.67396 13.767 4.50036Z" fill="#011C2A"/>
</svg>
