<svg width="60" height="45" viewBox="0 0 60 45" fill="none" xmlns="http://www.w3.org/2000/svg">
<path d="M6.52128 44.8809L20.8686 44.8809C24.4706 44.8809 27.3906 41.9609 27.3906 38.3582L27.3906 24.0115C27.3906 20.4088 24.4706 17.4888 20.8686 17.4888L9.12995 17.4888L9.12995 16.6148C9.12995 12.4888 12.4946 9.13084 16.63 9.13084C19.152 9.13084 21.196 7.0875 21.196 4.56551C21.196 2.0435 19.1526 0.000170941 16.63 0.000170721C7.45928 0.00216882 -0.000719613 7.45551 -0.000720414 16.6162L-0.000722315 38.3582C-0.00072263 41.9609 2.91928 44.8809 6.52128 44.8809Z" fill="#175CC2"/>
<path d="M39.1313 44.8809L53.478 44.8809C57.08 44.8809 60 41.9609 60 38.3582L60 24.0115C60 20.4088 57.08 17.4888 53.4773 17.4888L41.7393 17.4888L41.7393 16.6148C41.7393 12.4888 45.104 9.13084 49.2393 9.13084C51.7607 9.13084 53.8047 7.0875 53.8047 4.56551C53.8047 2.0435 51.7607 0.000170941 49.2393 0.000170721C40.0693 0.000169919 32.6087 7.4535 32.6087 16.6142L32.6087 38.3582C32.6087 41.9609 35.5287 44.8809 39.1313 44.8809Z" fill="#175CC2"/>
</svg>
