<svg width="21" height="20" viewBox="0 0 21 20" fill="none" xmlns="http://www.w3.org/2000/svg">
<path fill-rule="evenodd" clip-rule="evenodd" d="M2.05984 14.8403L0.339844 20L5.93984 18.5266C7.30571 19.2459 8.86088 19.6552 10.5123 19.6552C15.9398 19.6552 20.3398 15.2552 20.3398 9.82759C20.3398 4.4 15.9398 0 10.5123 0C5.08467 0 0.684671 4.4 0.684671 9.82759C0.684671 11.6593 1.18709 13.3724 2.05984 14.8403ZM14.6577 11.2608C14.6577 11.2608 16.3311 12.2415 16.7849 13.0991C16.978 13.4636 16.9108 13.9115 16.619 14.2039L16.0128 14.8102C14.0897 16.7333 11.9187 15.7864 9.99559 13.8633L8.238 12.1057L6.48042 10.3481C4.55731 8.42498 3.61042 6.25395 5.53352 4.33085L6.13973 3.72464C6.43145 3.43291 6.87938 3.36533 7.24421 3.55843C8.1018 4.01223 9.08249 5.68567 9.08249 5.68567C9.29835 6.06429 9.32249 6.52085 8.93766 6.73705C8.93766 6.73705 8.28559 7.28085 8.1918 7.41912C7.76387 8.05085 7.78042 8.63602 8.37111 9.22671L9.74387 10.5995L11.1166 11.9722C11.7073 12.5629 12.2925 12.5795 12.9242 12.1515C13.0625 12.0577 13.6063 11.4057 13.6063 11.4057C13.8221 11.0208 14.279 11.045 14.6577 11.2608Z" fill="#011C2A"/>
</svg>
