<svg width="28" height="27" viewBox="0 0 28 27" fill="none" xmlns="http://www.w3.org/2000/svg">
<path d="M25.5151 12.7051L23.5087 11.5114L21.5024 12.7051C21.3152 12.817 21.0809 12.8044 20.9048 12.6767C20.7287 12.549 20.6454 12.3282 20.6941 12.1153L21.2067 9.83352L19.455 8.28814C19.2915 8.14464 19.2302 7.91756 19.2962 7.7094C19.3639 7.50282 19.5462 7.35459 19.7633 7.33409L22.0857 7.11648L23.0087 4.96713C23.0952 4.76686 23.2917 4.63755 23.5087 4.63755C23.7257 4.63755 23.9222 4.76686 24.0087 4.96713L24.9317 7.11648L27.2542 7.33252C27.4712 7.35302 27.6536 7.49967 27.7212 7.70783C27.7888 7.9144 27.7259 8.14305 27.5624 8.28656L25.8107 9.83194L26.3233 12.1137C26.3705 12.3266 26.2887 12.5474 26.1126 12.6751C26.0182 12.7445 25.905 12.7792 25.7934 12.7792C25.6975 12.7823 25.6016 12.7571 25.5151 12.7051ZM7.05534 12.1169L6.54275 9.8351L8.29442 8.28972C8.45795 8.14622 8.51927 7.91914 8.45323 7.71098C8.38561 7.5044 8.20322 7.35617 7.98621 7.33567L5.66379 7.11963L4.74078 4.97028C4.6543 4.77001 4.45775 4.6407 4.24075 4.6407C4.02376 4.6407 3.82723 4.77001 3.74073 4.97028L2.81772 7.11963L0.4953 7.33724C0.27831 7.35775 0.0959099 7.5044 0.0282802 7.71255C-0.0393334 7.91913 0.0235633 8.14778 0.187092 8.29129L1.93876 9.83667L1.42617 12.1185C1.379 12.3314 1.46076 12.5521 1.63687 12.6798C1.81298 12.8076 2.04726 12.8186 2.23439 12.7082L4.24078 11.5145L6.24717 12.7082C6.33365 12.7587 6.42957 12.7839 6.52549 12.7839C6.6387 12.7839 6.75034 12.7492 6.84468 12.6798C7.02079 12.5505 7.10251 12.3298 7.05534 12.1169ZM19.4614 19.4024C20.3939 20.5015 20.9081 21.8986 20.9081 23.3352V26.1185C20.9081 26.6042 20.5134 27 20.0291 27H7.71879C7.23451 27 6.83982 26.6042 6.83982 26.1185V23.3352C6.83982 21.8986 7.35398 20.5015 8.28645 19.4024C8.95473 18.6155 9.80851 18.0147 10.7551 17.652C9.93273 16.8493 9.42171 15.7344 9.42171 14.5028C9.42171 12.0665 11.4186 10.086 13.8745 10.086C16.3291 10.086 18.3274 12.0666 18.3274 14.5028C18.3274 15.7344 17.8163 16.8493 16.994 17.652C17.9406 18.0147 18.7932 18.6139 19.4614 19.4024ZM19.8199 23.3352C19.8199 20.9619 18.1673 18.9358 15.8654 18.4513C15.2663 18.7494 14.5901 18.9197 13.8747 18.9197C13.1593 18.9197 12.4831 18.751 11.8841 18.4513C9.58205 18.9354 7.92949 20.9618 7.92949 23.3352V25.9088H19.8199V23.3352ZM11.5708 5.19282L11.0582 7.47462C11.011 7.6875 11.0928 7.90827 11.2689 8.03599C11.445 8.16372 11.6793 8.17476 11.8664 8.06438L13.8744 6.87223L15.8808 8.06595C15.9673 8.11642 16.0632 8.14165 16.1591 8.14165C16.2723 8.14165 16.384 8.10695 16.4783 8.03757C16.6544 7.90984 16.7377 7.68907 16.689 7.47619L16.1764 5.19439L17.9281 3.64901C18.0916 3.50551 18.1529 3.27843 18.0869 3.07028C18.0193 2.8637 17.8369 2.71547 17.6199 2.69497L15.2975 2.47893L14.3745 0.32958C14.288 0.129311 14.0914 0 13.8744 0C13.6574 0 13.4609 0.129307 13.3744 0.32958L12.4514 2.47893L10.129 2.69654C9.91198 2.71704 9.72958 2.8637 9.66195 3.07185C9.59434 3.27843 9.65723 3.50707 9.82076 3.65059L11.5708 5.19282Z" fill="#1359D1"/>
</svg>
