<svg width="37" height="27" viewBox="0 0 37 27" fill="none" xmlns="http://www.w3.org/2000/svg">
<path d="M30.1399 12.7051L28.1335 11.5114L26.1271 12.7051C25.94 12.817 25.7057 12.8044 25.5296 12.6767C25.3535 12.549 25.2702 12.3282 25.3189 12.1153L25.8315 9.83352L24.0798 8.28814C23.9163 8.14464 23.855 7.91756 23.921 7.7094C23.9886 7.50282 24.171 7.35459 24.388 7.33409L26.7105 7.11648L27.6335 4.96713C27.7199 4.76686 27.9165 4.63755 28.1335 4.63755C28.3505 4.63755 28.547 4.76686 28.6335 4.96713L29.5565 7.11648L31.8789 7.33252C32.0959 7.35302 32.2783 7.49967 32.346 7.70783C32.4136 7.9144 32.3507 8.14305 32.1872 8.28656L30.4355 9.83194L30.9481 12.1137C30.9952 12.3266 30.9135 12.5474 30.7374 12.6751C30.643 12.7445 30.5298 12.7792 30.4182 12.7792C30.3223 12.7823 30.2264 12.7571 30.1399 12.7051ZM11.6801 12.1169L11.1676 9.8351L12.9192 8.28972C13.0827 8.14622 13.1441 7.91914 13.078 7.71098C13.0104 7.5044 12.828 7.35617 12.611 7.33567L10.2886 7.11963L9.36559 4.97028C9.27911 4.77001 9.08256 4.6407 8.86556 4.6407C8.64857 4.6407 8.45204 4.77001 8.36554 4.97028L7.44253 7.11963L5.12011 7.33724C4.90312 7.35775 4.72072 7.5044 4.65309 7.71255C4.58548 7.91913 4.64838 8.14778 4.8119 8.29129L6.56357 9.83667L6.05098 12.1185C6.00381 12.3314 6.08557 12.5521 6.26168 12.6798C6.43779 12.8076 6.67207 12.8186 6.8592 12.7082L8.86559 11.5145L10.872 12.7082C10.9585 12.7587 11.0544 12.7839 11.1503 12.7839C11.2635 12.7839 11.3751 12.7492 11.4695 12.6798C11.6456 12.5505 11.7273 12.3298 11.6801 12.1169ZM24.0862 19.4024C25.0186 20.5015 25.5328 21.8986 25.5328 23.3352V26.1185C25.5328 26.6042 25.1382 27 24.6539 27H12.3436C11.8593 27 11.4646 26.6042 11.4646 26.1185V23.3352C11.4646 21.8986 11.9788 20.5015 12.9113 19.4024C13.5795 18.6155 14.4333 18.0147 15.3799 17.652C14.5575 16.8493 14.0465 15.7344 14.0465 14.5028C14.0465 12.0665 16.0434 10.086 18.4993 10.086C20.9539 10.086 22.9522 12.0666 22.9522 14.5028C22.9522 15.7344 22.4411 16.8493 21.6188 17.652C22.5654 18.0147 23.418 18.6139 24.0862 19.4024ZM24.4447 23.3352C24.4447 20.9619 22.7921 18.9358 20.4902 18.4513C19.8911 18.7494 19.2149 18.9197 18.4995 18.9197C17.7841 18.9197 17.1079 18.751 16.5089 18.4513C14.2069 18.9354 12.5543 20.9618 12.5543 23.3352V25.9088H24.4447V23.3352ZM7.98474 16.9976L5.66232 16.7816L4.73931 14.6322C4.65283 14.432 4.45628 14.3027 4.23928 14.3027C4.0223 14.3027 3.82576 14.432 3.73926 14.6322L2.81625 16.7816L0.493834 16.9992C0.276845 17.0197 0.094445 17.1664 0.0268154 17.3745C-0.0407981 17.5811 0.0220981 17.8097 0.185627 17.9533L1.93729 19.4986L1.4247 21.7804C1.37596 21.9917 1.45772 22.2125 1.63383 22.3402C1.80994 22.468 2.04421 22.479 2.23135 22.3686L4.23774 21.1749L6.24413 22.3686C6.33061 22.4191 6.42652 22.4443 6.52244 22.4443C6.63565 22.4443 6.74729 22.4096 6.84164 22.3402C7.01775 22.2125 7.10108 21.9917 7.05234 21.7789L6.53975 19.4971L8.29142 17.9517C8.45495 17.8082 8.51627 17.5811 8.45023 17.3729C8.38419 17.1648 8.20013 17.0181 7.98474 16.9976ZM16.1956 5.19282L15.683 7.47462C15.6358 7.6875 15.7176 7.90827 15.8937 8.03599C16.0698 8.16372 16.3041 8.17476 16.4912 8.06438L18.4992 6.87223L20.5056 8.06595C20.5921 8.11642 20.688 8.14165 20.7839 8.14165C20.8971 8.14165 21.0088 8.10695 21.1031 8.03757C21.2792 7.90984 21.3625 7.68907 21.3138 7.47619L20.8012 5.19439L22.5529 3.64901C22.7164 3.50551 22.7777 3.27843 22.7117 3.07028C22.6441 2.8637 22.4617 2.71547 22.2447 2.69497L19.9223 2.47893L18.9992 0.32958C18.9128 0.129311 18.7162 0 18.4992 0C18.2822 0 18.0857 0.129307 17.9992 0.32958L17.0762 2.47893L14.7538 2.69654C14.5368 2.71704 14.3544 2.8637 14.2868 3.07185C14.2191 3.27843 14.282 3.50707 14.4456 3.65059L16.1956 5.19282ZM36.9732 17.3731C36.9055 17.1665 36.7232 17.0183 36.5061 16.9978L34.1837 16.7817L33.2607 14.6324C33.1742 14.4321 32.9777 14.3028 32.7607 14.3028C32.5437 14.3028 32.3472 14.4321 32.2607 14.6324L31.3377 16.7817L29.0137 16.9978C28.7967 17.0183 28.6143 17.1649 28.5467 17.3731C28.479 17.5796 28.5419 17.8083 28.7055 17.9518L30.4571 19.4972L29.9445 21.779C29.8974 21.9919 29.9791 22.2126 30.1552 22.3404C30.3314 22.4681 30.5656 22.4791 30.7528 22.3687L32.7592 21.175L34.7655 22.3687C34.852 22.4192 34.9479 22.4444 35.0439 22.4444C35.1571 22.4444 35.2687 22.4097 35.363 22.3404C35.5392 22.2126 35.6225 21.9919 35.5737 21.779L35.0612 19.4972L36.8128 17.9518C36.9779 17.8067 37.0408 17.5796 36.9732 17.3731Z" fill="white"/>
</svg>
