<svg width="30" height="31" viewBox="0 0 30 31" fill="none" xmlns="http://www.w3.org/2000/svg">
<path d="M29.0764 17.8078C29.6695 17.186 30.0004 16.3596 30.0004 15.5002C30.0004 14.6408 29.6695 13.8144 29.0764 13.1926L28.4175 12.5005C28.2785 12.3548 28.1783 12.1765 28.1263 11.982C28.0742 11.7875 28.072 11.583 28.1197 11.3874L28.3436 10.4617C28.5472 9.62626 28.4208 8.74447 27.9908 7.99979C27.5608 7.25511 26.8603 6.70487 26.0349 6.46354L25.1211 6.19463C24.9274 6.13846 24.751 6.03428 24.6083 5.89176C24.4655 5.74924 24.3611 5.57299 24.3047 5.37935L24.0369 4.4655C23.7962 3.639 23.2456 2.93741 22.5 2.50721C21.7544 2.07701 20.8714 1.95147 20.0355 2.15679L19.1098 2.3807C18.914 2.4288 18.7091 2.42662 18.5143 2.37436C18.3196 2.32211 18.1411 2.22147 17.9956 2.08179L17.3046 1.424C16.6827 0.830889 15.8564 0.5 14.997 0.5C14.1376 0.5 13.3112 0.830889 12.6893 1.424L11.9973 2.08287C11.8512 2.22126 11.6729 2.32098 11.4785 2.37299C11.2841 2.425 11.0798 2.42765 10.8842 2.3807L9.96495 2.15679C9.12906 1.95312 8.24683 2.07938 7.50163 2.50935C6.75642 2.93931 6.20556 3.6399 5.96354 4.4655L5.69463 5.37935C5.63846 5.57306 5.53428 5.74945 5.39176 5.89216C5.24924 6.03487 5.07299 6.13928 4.87935 6.1957L3.9655 6.46354C3.13945 6.70487 2.43836 7.2556 2.00828 8.00101C1.5782 8.74642 1.45229 9.62902 1.65679 10.465L1.8807 11.3906C1.9284 11.5865 1.92602 11.7912 1.87378 11.9859C1.82154 12.1806 1.72113 12.3591 1.58179 12.5048L0.923998 13.1958C0.330889 13.8177 0 14.644 0 15.5034C0 16.3628 0.330889 17.1892 0.923998 17.8111L1.58287 18.5031C1.72192 18.6488 1.82209 18.8271 1.87414 19.0216C1.92619 19.2161 1.92844 19.4206 1.8807 19.6163L1.65679 20.5419C1.45415 21.3769 1.58097 22.2579 2.01091 23.0018C2.44084 23.7458 3.14084 24.2955 3.9655 24.5369L4.87935 24.8058C5.07306 24.8619 5.24945 24.9661 5.39216 25.1086C5.53487 25.2512 5.63928 25.4274 5.6957 25.6211L5.96461 26.536C6.20524 27.3622 6.75573 28.0635 7.50114 28.4935C8.24656 28.9235 9.12926 29.049 9.96495 28.8436L10.8906 28.6197C11.0865 28.5721 11.2912 28.5745 11.4859 28.6268C11.6806 28.679 11.859 28.7794 12.0048 28.9186L12.6958 29.5764C13.3178 30.1693 14.1441 30.5 15.0034 30.5C15.8627 30.5 16.6891 30.1693 17.3111 29.5764L18.0031 28.9175C18.1487 28.7783 18.327 28.678 18.5215 28.626C18.7161 28.5739 18.9206 28.5718 19.1163 28.6197L20.0419 28.8436C20.8769 29.046 21.7577 28.919 22.5016 28.4892C23.2455 28.0593 23.7953 27.3594 24.0369 26.5349L24.3058 25.6211C24.3619 25.4274 24.4661 25.251 24.6086 25.1083C24.7512 24.9655 24.9274 24.8611 25.1211 24.8047L26.036 24.5358C26.8616 24.2942 27.5623 23.7436 27.9921 22.9984C28.4219 22.2533 28.5479 21.3711 28.3436 20.5355L28.1197 19.6098C28.072 19.414 28.0744 19.2092 28.1266 19.0145C28.1789 18.8198 28.2793 18.6413 28.4186 18.4956L29.0764 17.8078ZM21.9639 12.5412L14.1871 19.9998C13.9876 20.1913 13.7217 20.2982 13.4452 20.2982C13.1686 20.2982 12.9028 20.1913 12.7033 19.9998L8.03656 15.527C7.93505 15.4296 7.85373 15.3131 7.79723 15.1842C7.74074 15.0554 7.71017 14.9167 7.70729 14.776C7.70146 14.4919 7.80873 14.2171 8.00549 14.0121C8.20225 13.8071 8.47239 13.6887 8.75649 13.6829C9.04058 13.677 9.31535 13.7843 9.52035 13.9811L13.4457 17.75L20.479 11.0006C20.6863 10.8209 20.9546 10.7276 21.2287 10.7399C21.5028 10.7522 21.7617 10.8692 21.952 11.0667C22.1424 11.2642 22.2498 11.5273 22.252 11.8016C22.2542 12.0759 22.151 12.3406 21.9639 12.5412Z" fill="white"/>
</svg>
