<svg width="16" height="12" viewBox="0 0 16 12" fill="none" xmlns="http://www.w3.org/2000/svg">
<path d="M15.8557 1.42545C15.2726 1.65977 14.6381 1.82841 13.9845 1.89409C14.6631 1.51853 15.1712 0.925213 15.4136 0.225451C14.7769 0.578331 14.0793 0.825776 13.3519 0.956811C13.0478 0.654018 12.6801 0.4128 12.2716 0.248186C11.8632 0.0835725 11.4227 -0.000908491 10.9776 7.36757e-06C9.17691 7.36757e-06 7.72873 1.35977 7.72873 3.02841C7.72873 3.26273 7.75922 3.49705 7.80876 3.72249C5.11247 3.59113 2.70772 2.39113 1.109 0.553853C0.8177 1.01737 0.665047 1.54514 0.666927 2.08225C0.666927 3.13314 1.24048 4.05977 2.11511 4.60474C1.59968 4.58583 1.09632 4.45385 0.645966 4.21953V4.25681C0.645966 5.72841 1.76259 6.94793 3.25079 7.22841C2.97137 7.29602 2.68392 7.33061 2.39522 7.33136C2.18371 7.33136 1.98363 7.31184 1.78165 7.28521C2.19324 8.48521 3.3918 9.35681 4.81902 9.38521C3.7024 10.2 2.30376 10.6793 0.785068 10.6793C0.512581 10.6793 0.261054 10.6704 0 10.642C1.44056 11.503 3.1498 12 4.99052 12C10.9662 12 14.236 7.38817 14.236 3.38521C14.236 3.25385 14.236 3.12249 14.2265 2.99113C14.8591 2.55977 15.4136 2.02545 15.8557 1.42545Z" fill="white"/>
</svg>
